<?xml version="1.0" encoding="UTF-8" standalone="no"?>
<!DOCTYPE svg PUBLIC "-//W3C//DTD SVG 1.1//EN"
 "http://www.w3.org/Graphics/SVG/1.1/DTD/svg11.dtd">
<!-- Generated by graphviz version 2.43.0 (0)
 -->
<!-- Title: G Pages: 1 -->
<svg width="1551pt" height="476pt"
 viewBox="0.00 0.00 1550.61 476.00" xmlns="http://www.w3.org/2000/svg" xmlns:xlink="http://www.w3.org/1999/xlink">
<g id="graph0" class="graph" transform="scale(1 1) rotate(0) translate(4 472)">
<title>G</title>
<polygon fill="white" stroke="transparent" points="-4,4 -4,-472 1546.61,-472 1546.61,4 -4,4"/>
<!-- :app -->
<g id="node1" class="node">
<title>:app</title>
<ellipse fill="none" stroke="black" cx="623.61" cy="-450" rx="30.59" ry="18"/>
<text text-anchor="middle" x="623.61" y="-446.3" font-family="Times,serif" font-size="14.00">:app</text>
</g>
<!-- :modules:common -->
<g id="node2" class="node">
<title>:modules:common</title>
<ellipse fill="none" stroke="black" cx="598.61" cy="-18" rx="94.78" ry="18"/>
<text text-anchor="middle" x="598.61" y="-14.3" font-family="Times,serif" font-size="14.00">:modules:common</text>
</g>
<!-- :app&#45;&gt;:modules:common -->
<g id="edge1" class="edge">
<title>:app&#45;&gt;:modules:common</title>
<path fill="none" stroke="black" d="M592.74,-448.55C468.23,-445.93 9.61,-428.04 9.61,-307 9.61,-307 9.61,-307 9.61,-161 9.61,-136.78 -49.62,-140.68 129.61,-72 194.85,-47 381.28,-31.79 498.5,-24.42"/>
<polygon fill="black" stroke="black" points="498.8,-27.91 508.57,-23.79 498.37,-20.92 498.8,-27.91"/>
</g>
<!-- :modules:designsystem -->
<g id="node3" class="node">
<title>:modules:designsystem</title>
<ellipse fill="none" stroke="black" cx="1394.61" cy="-234" rx="119.68" ry="18"/>
<text text-anchor="middle" x="1394.61" y="-230.3" font-family="Times,serif" font-size="14.00">:modules:designsystem</text>
</g>
<!-- :app&#45;&gt;:modules:designsystem -->
<g id="edge2" class="edge">
<title>:app&#45;&gt;:modules:designsystem</title>
<path fill="none" stroke="black" d="M653.77,-446.42C713.88,-440.83 852.57,-425.63 965.61,-396 1109.69,-358.23 1272.51,-289.58 1349.57,-255.43"/>
<polygon fill="black" stroke="black" points="1351.27,-258.51 1358.98,-251.24 1348.42,-252.11 1351.27,-258.51"/>
</g>
<!-- :modules:database -->
<g id="node4" class="node">
<title>:modules:database</title>
<ellipse fill="none" stroke="black" cx="353.61" cy="-162" rx="97.48" ry="18"/>
<text text-anchor="middle" x="353.61" y="-158.3" font-family="Times,serif" font-size="14.00">:modules:database</text>
</g>
<!-- :app&#45;&gt;:modules:database -->
<g id="edge3" class="edge">
<title>:app&#45;&gt;:modules:database</title>
<path fill="none" stroke="black" d="M609.47,-434.03C565.53,-387.48 431.04,-245.02 376.72,-187.48"/>
<polygon fill="black" stroke="black" points="379.02,-184.82 369.61,-179.95 373.93,-189.62 379.02,-184.82"/>
</g>
<!-- :modules:datastore -->
<g id="node5" class="node">
<title>:modules:datastore</title>
<ellipse fill="none" stroke="black" cx="137.61" cy="-162" rx="100.18" ry="18"/>
<text text-anchor="middle" x="137.61" y="-158.3" font-family="Times,serif" font-size="14.00">:modules:datastore</text>
</g>
<!-- :app&#45;&gt;:modules:datastore -->
<g id="edge4" class="edge">
<title>:app&#45;&gt;:modules:datastore</title>
<path fill="none" stroke="black" d="M602.73,-436.71C527.57,-392.48 270.25,-241.06 174.18,-184.52"/>
<polygon fill="black" stroke="black" points="175.79,-181.41 165.4,-179.35 172.24,-187.44 175.79,-181.41"/>
</g>
<!-- :modules:domain -->
<g id="node6" class="node">
<title>:modules:domain</title>
<ellipse fill="none" stroke="black" cx="832.61" cy="-90" rx="89.88" ry="18"/>
<text text-anchor="middle" x="832.61" y="-86.3" font-family="Times,serif" font-size="14.00">:modules:domain</text>
</g>
<!-- :app&#45;&gt;:modules:domain -->
<g id="edge5" class="edge">
<title>:app&#45;&gt;:modules:domain</title>
<path fill="none" stroke="black" d="M625.18,-431.98C627.34,-413.59 632.22,-383.74 642.61,-360 686.3,-260.19 770.22,-159.92 810.27,-115.18"/>
<polygon fill="black" stroke="black" points="812.89,-117.5 817,-107.73 807.7,-112.81 812.89,-117.5"/>
</g>
<!-- :modules:usecase -->
<g id="node7" class="node">
<title>:modules:usecase</title>
<ellipse fill="none" stroke="black" cx="598.61" cy="-162" rx="92.08" ry="18"/>
<text text-anchor="middle" x="598.61" y="-158.3" font-family="Times,serif" font-size="14.00">:modules:usecase</text>
</g>
<!-- :app&#45;&gt;:modules:usecase -->
<g id="edge6" class="edge">
<title>:app&#45;&gt;:modules:usecase</title>
<path fill="none" stroke="black" d="M618.14,-432.01C615.07,-421.7 611.49,-408.23 609.61,-396 598.25,-322.2 597.55,-233.85 598.04,-190.18"/>
<polygon fill="black" stroke="black" points="601.54,-190.13 598.19,-180.08 594.54,-190.03 601.54,-190.13"/>
</g>
<!-- :modules:navigator -->
<g id="node8" class="node">
<title>:modules:navigator</title>
<ellipse fill="none" stroke="black" cx="944.61" cy="-306" rx="100.18" ry="18"/>
<text text-anchor="middle" x="944.61" y="-302.3" font-family="Times,serif" font-size="14.00">:modules:navigator</text>
</g>
<!-- :app&#45;&gt;:modules:navigator -->
<g id="edge7" class="edge">
<title>:app&#45;&gt;:modules:navigator</title>
<path fill="none" stroke="black" d="M654.34,-448.78C727.6,-447.55 909.23,-440.02 946.61,-396 960.86,-379.22 958.63,-353.57 953.86,-334.11"/>
<polygon fill="black" stroke="black" points="957.18,-332.99 951.11,-324.3 950.44,-334.88 957.18,-332.99"/>
</g>
<!-- :modules:navigator&#45;quicktile -->
<g id="node9" class="node">
<title>:modules:navigator&#45;quicktile</title>
<ellipse fill="none" stroke="black" cx="794.61" cy="-378" rx="142.97" ry="18"/>
<text text-anchor="middle" x="794.61" y="-374.3" font-family="Times,serif" font-size="14.00">:modules:navigator&#45;quicktile</text>
</g>
<!-- :app&#45;&gt;:modules:navigator&#45;quicktile -->
<g id="edge8" class="edge">
<title>:app&#45;&gt;:modules:navigator&#45;quicktile</title>
<path fill="none" stroke="red" stroke-width="2" d="M648.11,-438.97C673.3,-428.66 713.23,-412.31 745.05,-399.29"/>
<polygon fill="red" stroke="red" stroke-width="2" points="746.71,-402.39 754.64,-395.36 744.06,-395.91 746.71,-402.39"/>
</g>
<!-- :modules:resources -->
<g id="node10" class="node">
<title>:modules:resources</title>
<ellipse fill="none" stroke="black" cx="1257.61" cy="-18" rx="100.98" ry="18"/>
<text text-anchor="middle" x="1257.61" y="-14.3" font-family="Times,serif" font-size="14.00">:modules:resources</text>
</g>
<!-- :app&#45;&gt;:modules:resources -->
<g id="edge9" class="edge">
<title>:app&#45;&gt;:modules:resources</title>
<path fill="none" stroke="black" d="M653.92,-447.59C812.85,-439.81 1542.61,-399.07 1542.61,-307 1542.61,-307 1542.61,-307 1542.61,-161 1542.61,-75.61 1438.84,-41.57 1356.54,-28"/>
<polygon fill="black" stroke="black" points="1357.03,-24.53 1346.61,-26.44 1355.95,-31.45 1357.03,-24.53"/>
</g>
<!-- :modules:designsystem&#45;&gt;:modules:domain -->
<g id="edge10" class="edge">
<title>:modules:designsystem&#45;&gt;:modules:domain</title>
<path fill="none" stroke="black" d="M1355.7,-216.84C1306.91,-197.14 1220.34,-163.98 1143.61,-144 1068.17,-124.35 980.49,-110.17 917.49,-101.45"/>
<polygon fill="black" stroke="black" points="917.59,-97.93 907.2,-100.04 916.64,-104.86 917.59,-97.93"/>
</g>
<!-- :modules:designsystem&#45;&gt;:modules:resources -->
<g id="edge11" class="edge">
<title>:modules:designsystem&#45;&gt;:modules:resources</title>
<path fill="none" stroke="black" d="M1383.63,-215.85C1359.57,-178.27 1302.11,-88.51 1273.85,-44.37"/>
<polygon fill="black" stroke="black" points="1276.79,-42.47 1268.45,-35.94 1270.89,-46.24 1276.79,-42.47"/>
</g>
<!-- :modules:database&#45;&gt;:modules:common -->
<g id="edge12" class="edge">
<title>:modules:database&#45;&gt;:modules:common</title>
<path fill="none" stroke="black" d="M375.5,-144.25C388.91,-133.91 406.36,-120.32 421.61,-108 441,-92.34 443.19,-84.75 464.61,-72 488.52,-57.77 516.95,-45.9 541.46,-37.02"/>
<polygon fill="black" stroke="black" points="542.74,-40.29 550.99,-33.65 540.4,-33.69 542.74,-40.29"/>
</g>
<!-- :modules:database&#45;&gt;:modules:domain -->
<g id="edge13" class="edge">
<title>:modules:database&#45;&gt;:modules:domain</title>
<path fill="none" stroke="black" d="M427.4,-150.22C515.3,-137.37 661.61,-115.99 752.29,-102.74"/>
<polygon fill="black" stroke="black" points="752.85,-106.19 762.24,-101.28 751.84,-99.27 752.85,-106.19"/>
</g>
<!-- :modules:datastore&#45;&gt;:modules:common -->
<g id="edge14" class="edge">
<title>:modules:datastore&#45;&gt;:modules:common</title>
<path fill="none" stroke="black" d="M133.92,-143.96C130.67,-123.84 128.97,-90.74 147.61,-72 171.89,-47.6 372.94,-31.82 498.27,-24.26"/>
<polygon fill="black" stroke="black" points="498.51,-27.75 508.28,-23.67 498.09,-20.77 498.51,-27.75"/>
</g>
<!-- :modules:datastore&#45;&gt;:modules:domain -->
<g id="edge15" class="edge">
<title>:modules:datastore&#45;&gt;:modules:domain</title>
<path fill="none" stroke="black" d="M208.82,-149.32C221.71,-147.4 235.05,-145.54 247.61,-144 420.79,-122.79 623.77,-106.26 739.38,-97.63"/>
<polygon fill="black" stroke="black" points="739.89,-101.1 749.6,-96.87 739.37,-94.12 739.89,-101.1"/>
</g>
<!-- :modules:datastore&#45;proto -->
<g id="node11" class="node">
<title>:modules:datastore&#45;proto</title>
<ellipse fill="none" stroke="black" cx="284.61" cy="-90" rx="128.08" ry="18"/>
<text text-anchor="middle" x="284.61" y="-86.3" font-family="Times,serif" font-size="14.00">:modules:datastore&#45;proto</text>
</g>
<!-- :modules:datastore&#45;&gt;:modules:datastore&#45;proto -->
<g id="edge16" class="edge">
<title>:modules:datastore&#45;&gt;:modules:datastore&#45;proto</title>
<path fill="none" stroke="black" d="M171.33,-144.94C192.03,-135.09 218.74,-122.37 241.03,-111.75"/>
<polygon fill="black" stroke="black" points="242.75,-114.81 250.28,-107.35 239.74,-108.49 242.75,-114.81"/>
</g>
<!-- :modules:domain&#45;&gt;:modules:common -->
<g id="edge17" class="edge">
<title>:modules:domain&#45;&gt;:modules:common</title>
<path fill="none" stroke="red" stroke-width="2" d="M784.69,-74.67C747.71,-63.6 696.39,-48.25 657.01,-36.47"/>
<polygon fill="red" stroke="red" stroke-width="2" points="657.85,-33.07 647.27,-33.56 655.84,-39.78 657.85,-33.07"/>
</g>
<!-- :modules:domain&#45;&gt;:modules:resources -->
<g id="edge18" class="edge">
<title>:modules:domain&#45;&gt;:modules:resources</title>
<path fill="none" stroke="black" d="M899.48,-77.99C974.36,-65.65 1095.71,-45.67 1176.08,-32.43"/>
<polygon fill="black" stroke="black" points="1176.86,-35.85 1186.16,-30.77 1175.73,-28.94 1176.86,-35.85"/>
</g>
<!-- :modules:usecase&#45;&gt;:modules:common -->
<g id="edge19" class="edge">
<title>:modules:usecase&#45;&gt;:modules:common</title>
<path fill="none" stroke="black" d="M598.61,-143.87C598.61,-119.67 598.61,-75.21 598.61,-46.39"/>
<polygon fill="black" stroke="black" points="602.11,-46.19 598.61,-36.19 595.11,-46.19 602.11,-46.19"/>
</g>
<!-- :modules:usecase&#45;&gt;:modules:domain -->
<g id="edge20" class="edge">
<title>:modules:usecase&#45;&gt;:modules:domain</title>
<path fill="none" stroke="black" d="M646.81,-146.58C684.06,-135.44 735.73,-119.98 775.13,-108.19"/>
<polygon fill="black" stroke="black" points="776.29,-111.5 784.87,-105.28 774.29,-104.79 776.29,-111.5"/>
</g>
<!-- :modules:navigator&#45;&gt;:modules:common -->
<g id="edge21" class="edge">
<title>:modules:navigator&#45;&gt;:modules:common</title>
<path fill="none" stroke="black" d="M908.62,-289.12C888.67,-279.6 863.89,-266.53 843.61,-252 752.24,-186.52 660.47,-88.62 620.03,-43.45"/>
<polygon fill="black" stroke="black" points="622.57,-41.04 613.31,-35.9 617.34,-45.7 622.57,-41.04"/>
</g>
<!-- :modules:navigator&#45;&gt;:modules:designsystem -->
<g id="edge22" class="edge">
<title>:modules:navigator&#45;&gt;:modules:designsystem</title>
<path fill="none" stroke="black" d="M1017.66,-293.64C1095.99,-281.45 1220.44,-262.09 1304.72,-248.98"/>
<polygon fill="black" stroke="black" points="1305.45,-252.41 1314.8,-247.42 1304.38,-245.49 1305.45,-252.41"/>
</g>
<!-- :modules:navigator&#45;&gt;:modules:domain -->
<g id="edge23" class="edge">
<title>:modules:navigator&#45;&gt;:modules:domain</title>
<path fill="none" stroke="black" d="M919.72,-288.54C890.66,-267.5 844.63,-227.98 829.61,-180 823.34,-159.99 824.56,-136.2 827.09,-118.26"/>
<polygon fill="black" stroke="black" points="830.57,-118.61 828.73,-108.18 823.67,-117.49 830.57,-118.61"/>
</g>
<!-- :modules:navigator&#45;&gt;:modules:resources -->
<g id="edge26" class="edge">
<title>:modules:navigator&#45;&gt;:modules:resources</title>
<path fill="none" stroke="black" d="M1037.4,-299.15C1109.64,-292.57 1201.82,-279.04 1227.61,-252 1281.13,-195.89 1271.7,-94.61 1263.3,-46.2"/>
<polygon fill="black" stroke="black" points="1266.71,-45.36 1261.44,-36.17 1259.83,-46.64 1266.71,-45.36"/>
</g>
<!-- :modules:navigator&#45;domain -->
<g id="node12" class="node">
<title>:modules:navigator&#45;domain</title>
<ellipse fill="none" stroke="black" cx="997.61" cy="-162" rx="137.28" ry="18"/>
<text text-anchor="middle" x="997.61" y="-158.3" font-family="Times,serif" font-size="14.00">:modules:navigator&#45;domain</text>
</g>
<!-- :modules:navigator&#45;&gt;:modules:navigator&#45;domain -->
<g id="edge24" class="edge">
<title>:modules:navigator&#45;&gt;:modules:navigator&#45;domain</title>
<path fill="none" stroke="black" d="M919.81,-288.42C908.31,-279.21 895.83,-266.64 889.61,-252 883.35,-237.28 881.15,-229.58 889.61,-216 898.84,-201.18 913.56,-190.39 929.2,-182.58"/>
<polygon fill="black" stroke="black" points="930.85,-185.67 938.48,-178.31 927.93,-179.31 930.85,-185.67"/>
</g>
<!-- :modules:navigator&#45;notifications -->
<g id="node13" class="node">
<title>:modules:navigator&#45;notifications</title>
<ellipse fill="none" stroke="black" cx="1058.61" cy="-234" rx="159.77" ry="18"/>
<text text-anchor="middle" x="1058.61" y="-230.3" font-family="Times,serif" font-size="14.00">:modules:navigator&#45;notifications</text>
</g>
<!-- :modules:navigator&#45;&gt;:modules:navigator&#45;notifications -->
<g id="edge25" class="edge">
<title>:modules:navigator&#45;&gt;:modules:navigator&#45;notifications</title>
<path fill="none" stroke="red" stroke-width="2" d="M971.34,-288.59C986.55,-279.25 1005.82,-267.41 1022.38,-257.25"/>
<polygon fill="red" stroke="red" stroke-width="2" points="1024.57,-260.01 1031.26,-251.8 1020.9,-254.05 1024.57,-260.01"/>
</g>
<!-- :modules:navigator&#45;quicktile&#45;&gt;:modules:common -->
<g id="edge27" class="edge">
<title>:modules:navigator&#45;quicktile&#45;&gt;:modules:common</title>
<path fill="none" stroke="black" d="M745.26,-361.06C675.36,-335.5 550.2,-278 497.61,-180 470.22,-128.97 527.86,-72.23 566.82,-41.6"/>
<polygon fill="black" stroke="black" points="569,-44.34 574.81,-35.47 564.74,-38.78 569,-44.34"/>
</g>
<!-- :modules:navigator&#45;quicktile&#45;&gt;:modules:navigator -->
<g id="edge28" class="edge">
<title>:modules:navigator&#45;quicktile&#45;&gt;:modules:navigator</title>
<path fill="none" stroke="red" stroke-width="2" d="M830.16,-360.41C851.38,-350.51 878.5,-337.85 901.01,-327.34"/>
<polygon fill="red" stroke="red" stroke-width="2" points="902.77,-330.39 910.35,-322.99 899.81,-324.05 902.77,-330.39"/>
</g>
<!-- :modules:navigator&#45;quicktile&#45;&gt;:modules:navigator&#45;domain -->
<g id="edge29" class="edge">
<title>:modules:navigator&#45;quicktile&#45;&gt;:modules:navigator&#45;domain</title>
<path fill="none" stroke="black" d="M799.2,-359.87C808.77,-327.36 833.84,-256.33 879.61,-216 895.83,-201.71 916.53,-190.68 936.05,-182.47"/>
<polygon fill="black" stroke="black" points="937.55,-185.64 945.52,-178.66 934.94,-179.14 937.55,-185.64"/>
</g>
<!-- :modules:navigator&#45;domain&#45;&gt;:modules:common -->
<g id="edge31" class="edge">
<title>:modules:navigator&#45;domain&#45;&gt;:modules:common</title>
<path fill="none" stroke="black" d="M989.91,-143.72C979.73,-123.04 959.73,-89.06 931.61,-72 892.89,-48.51 779.35,-34.06 695.56,-26.3"/>
<polygon fill="black" stroke="black" points="695.78,-22.8 685.5,-25.38 695.14,-29.77 695.78,-22.8"/>
</g>
<!-- :modules:navigator&#45;domain&#45;&gt;:modules:domain -->
<g id="edge30" class="edge">
<title>:modules:navigator&#45;domain&#45;&gt;:modules:domain</title>
<path fill="none" stroke="red" stroke-width="2" d="M958.92,-144.59C934.85,-134.38 903.77,-121.19 878.46,-110.45"/>
<polygon fill="red" stroke="red" stroke-width="2" points="879.64,-107.15 869.07,-106.47 876.91,-113.6 879.64,-107.15"/>
</g>
<!-- :modules:navigator&#45;domain&#45;&gt;:modules:resources -->
<g id="edge32" class="edge">
<title>:modules:navigator&#45;domain&#45;&gt;:modules:resources</title>
<path fill="none" stroke="black" d="M1027.94,-144.43C1075.33,-118.55 1166.88,-68.55 1218.94,-40.12"/>
<polygon fill="black" stroke="black" points="1220.77,-43.11 1227.87,-35.24 1217.41,-36.96 1220.77,-43.11"/>
</g>
<!-- :modules:navigator&#45;notifications&#45;&gt;:modules:common -->
<g id="edge35" class="edge">
<title>:modules:navigator&#45;notifications&#45;&gt;:modules:common</title>
<path fill="none" stroke="black" d="M1102.3,-216.57C1118.25,-208.2 1134.58,-196.27 1143.61,-180 1151.37,-166.01 1152.58,-157.25 1143.61,-144 1094.05,-70.8 839.16,-38.49 696.18,-25.93"/>
<polygon fill="black" stroke="black" points="696.35,-22.43 686.08,-25.06 695.75,-29.41 696.35,-22.43"/>
</g>
<!-- :modules:navigator&#45;notifications&#45;&gt;:modules:domain -->
<g id="edge34" class="edge">
<title>:modules:navigator&#45;notifications&#45;&gt;:modules:domain</title>
<path fill="none" stroke="black" d="M966.89,-219.24C919.4,-210.27 867.99,-197.06 851.61,-180 836,-163.75 831.89,-137.99 831.3,-118.36"/>
<polygon fill="black" stroke="black" points="834.8,-118.17 831.29,-108.18 827.8,-118.18 834.8,-118.17"/>
</g>
<!-- :modules:navigator&#45;notifications&#45;&gt;:modules:resources -->
<g id="edge36" class="edge">
<title>:modules:navigator&#45;notifications&#45;&gt;:modules:resources</title>
<path fill="none" stroke="black" d="M1114.05,-217.04C1135.57,-208.71 1159.17,-196.69 1176.61,-180 1215.94,-142.36 1239.23,-81.51 1250.11,-46.39"/>
<polygon fill="black" stroke="black" points="1253.59,-46.95 1253.09,-36.37 1246.88,-44.95 1253.59,-46.95"/>
</g>
<!-- :modules:navigator&#45;notifications&#45;&gt;:modules:navigator&#45;domain -->
<g id="edge33" class="edge">
<title>:modules:navigator&#45;notifications&#45;&gt;:modules:navigator&#45;domain</title>
<path fill="none" stroke="red" stroke-width="2" d="M1043.84,-216.05C1036.46,-207.58 1027.38,-197.17 1019.23,-187.82"/>
<polygon fill="red" stroke="red" stroke-width="2" points="1021.87,-185.51 1012.66,-180.28 1016.59,-190.11 1021.87,-185.51"/>
</g>
</g>
</svg>
