<?xml version="1.0" encoding="UTF-8" standalone="no"?>
<!DOCTYPE svg PUBLIC "-//W3C//DTD SVG 1.1//EN"
 "http://www.w3.org/Graphics/SVG/1.1/DTD/svg11.dtd">
<!-- Generated by graphviz version 2.43.0 (0)
 -->
<!-- Title: G Pages: 1 -->
<svg width="1314pt" height="476pt"
 viewBox="0.00 0.00 1314.29 476.00" xmlns="http://www.w3.org/2000/svg" xmlns:xlink="http://www.w3.org/1999/xlink">
<g id="graph0" class="graph" transform="scale(1 1) rotate(0) translate(4 472)">
<title>G</title>
<polygon fill="white" stroke="transparent" points="-4,4 -4,-472 1310.29,-472 1310.29,4 -4,4"/>
<!-- :app -->
<g id="node1" class="node">
<title>:app</title>
<ellipse fill="none" stroke="black" cx="656.29" cy="-450" rx="30.59" ry="18"/>
<text text-anchor="middle" x="656.29" y="-446.3" font-family="Times,serif" font-size="14.00">:app</text>
</g>
<!-- :modules:common -->
<g id="node2" class="node">
<title>:modules:common</title>
<ellipse fill="none" stroke="black" cx="853.29" cy="-18" rx="94.78" ry="18"/>
<text text-anchor="middle" x="853.29" y="-14.3" font-family="Times,serif" font-size="14.00">:modules:common</text>
</g>
<!-- :app&#45;&gt;:modules:common -->
<g id="edge1" class="edge">
<title>:app&#45;&gt;:modules:common</title>
<path fill="none" stroke="black" d="M687.21,-448.94C816.38,-447.87 1306.29,-435.36 1306.29,-307 1306.29,-307 1306.29,-307 1306.29,-161 1306.29,-85.84 1076.39,-45.7 944.15,-28.83"/>
<polygon fill="black" stroke="black" points="944.38,-25.33 934.02,-27.56 943.5,-32.28 944.38,-25.33"/>
</g>
<!-- :modules:designsystem -->
<g id="node3" class="node">
<title>:modules:designsystem</title>
<ellipse fill="none" stroke="black" cx="456.29" cy="-234" rx="119.68" ry="18"/>
<text text-anchor="middle" x="456.29" y="-230.3" font-family="Times,serif" font-size="14.00">:modules:designsystem</text>
</g>
<!-- :app&#45;&gt;:modules:designsystem -->
<g id="edge2" class="edge">
<title>:app&#45;&gt;:modules:designsystem</title>
<path fill="none" stroke="black" d="M642.23,-433.95C608.17,-397.51 521.02,-304.26 479.27,-259.58"/>
<polygon fill="black" stroke="black" points="481.64,-257 472.26,-252.08 476.53,-261.78 481.64,-257"/>
</g>
<!-- :modules:database -->
<g id="node4" class="node">
<title>:modules:database</title>
<ellipse fill="none" stroke="black" cx="1181.29" cy="-162" rx="97.48" ry="18"/>
<text text-anchor="middle" x="1181.29" y="-158.3" font-family="Times,serif" font-size="14.00">:modules:database</text>
</g>
<!-- :app&#45;&gt;:modules:database -->
<g id="edge3" class="edge">
<title>:app&#45;&gt;:modules:database</title>
<path fill="none" stroke="black" d="M686.96,-449.32C775.94,-449.64 1031.89,-446.09 1095.29,-396 1160.07,-344.82 1176.06,-239.88 1180,-190.21"/>
<polygon fill="black" stroke="black" points="1183.49,-190.43 1180.69,-180.21 1176.51,-189.95 1183.49,-190.43"/>
</g>
<!-- :modules:datastore -->
<g id="node5" class="node">
<title>:modules:datastore</title>
<ellipse fill="none" stroke="black" cx="302.29" cy="-162" rx="100.18" ry="18"/>
<text text-anchor="middle" x="302.29" y="-158.3" font-family="Times,serif" font-size="14.00">:modules:datastore</text>
</g>
<!-- :app&#45;&gt;:modules:datastore -->
<g id="edge4" class="edge">
<title>:app&#45;&gt;:modules:datastore</title>
<path fill="none" stroke="black" d="M625.73,-449.39C546.42,-449.67 337.17,-445.62 294.29,-396 243.89,-337.68 272.91,-237.17 291.07,-189.53"/>
<polygon fill="black" stroke="black" points="294.34,-190.79 294.75,-180.2 287.83,-188.22 294.34,-190.79"/>
</g>
<!-- :modules:domain -->
<g id="node6" class="node">
<title>:modules:domain</title>
<ellipse fill="none" stroke="black" cx="587.29" cy="-90" rx="89.88" ry="18"/>
<text text-anchor="middle" x="587.29" y="-86.3" font-family="Times,serif" font-size="14.00">:modules:domain</text>
</g>
<!-- :app&#45;&gt;:modules:domain -->
<g id="edge5" class="edge">
<title>:app&#45;&gt;:modules:domain</title>
<path fill="none" stroke="black" d="M628.39,-442.28C561.76,-424.56 393.93,-369.58 327.29,-252 319.4,-238.08 318.48,-229.36 327.29,-216 349.65,-182.09 374.48,-197.17 411.29,-180 458.86,-157.81 512.57,-130.28 548.01,-111.76"/>
<polygon fill="black" stroke="black" points="549.82,-114.77 557.06,-107.03 546.57,-108.56 549.82,-114.77"/>
</g>
<!-- :modules:usecase -->
<g id="node7" class="node">
<title>:modules:usecase</title>
<ellipse fill="none" stroke="black" cx="92.29" cy="-162" rx="92.08" ry="18"/>
<text text-anchor="middle" x="92.29" y="-158.3" font-family="Times,serif" font-size="14.00">:modules:usecase</text>
</g>
<!-- :app&#45;&gt;:modules:usecase -->
<g id="edge6" class="edge">
<title>:app&#45;&gt;:modules:usecase</title>
<path fill="none" stroke="black" d="M625.72,-447.76C545.61,-444.05 331.6,-431.03 271.29,-396 186.11,-346.52 127.58,-239.09 103.97,-189.31"/>
<polygon fill="black" stroke="black" points="107.1,-187.75 99.71,-180.15 100.75,-190.7 107.1,-187.75"/>
</g>
<!-- :modules:navigator -->
<g id="node8" class="node">
<title>:modules:navigator</title>
<ellipse fill="none" stroke="black" cx="792.29" cy="-306" rx="100.18" ry="18"/>
<text text-anchor="middle" x="792.29" y="-302.3" font-family="Times,serif" font-size="14.00">:modules:navigator</text>
</g>
<!-- :app&#45;&gt;:modules:navigator -->
<g id="edge7" class="edge">
<title>:app&#45;&gt;:modules:navigator</title>
<path fill="none" stroke="black" d="M670.59,-434.07C694,-409.63 740.74,-360.83 768.99,-331.33"/>
<polygon fill="black" stroke="black" points="771.7,-333.56 776.09,-323.91 766.65,-328.71 771.7,-333.56"/>
</g>
<!-- :modules:navigator&#45;quicktile -->
<g id="node9" class="node">
<title>:modules:navigator&#45;quicktile</title>
<ellipse fill="none" stroke="black" cx="943.29" cy="-378" rx="142.97" ry="18"/>
<text text-anchor="middle" x="943.29" y="-374.3" font-family="Times,serif" font-size="14.00">:modules:navigator&#45;quicktile</text>
</g>
<!-- :app&#45;&gt;:modules:navigator&#45;quicktile -->
<g id="edge8" class="edge">
<title>:app&#45;&gt;:modules:navigator&#45;quicktile</title>
<path fill="none" stroke="red" stroke-width="2" d="M684.07,-442.22C726.85,-431.79 810.24,-411.45 870.92,-396.65"/>
<polygon fill="red" stroke="red" stroke-width="2" points="871.95,-400 880.84,-394.23 870.29,-393.2 871.95,-400"/>
</g>
<!-- :modules:database&#45;&gt;:modules:common -->
<g id="edge9" class="edge">
<title>:modules:database&#45;&gt;:modules:common</title>
<path fill="none" stroke="black" d="M1164.88,-143.9C1144.55,-123.71 1107.96,-90.55 1070.29,-72 1029.15,-51.74 979.72,-38.88 938.43,-30.92"/>
<polygon fill="black" stroke="black" points="938.87,-27.44 928.39,-29.05 937.58,-34.32 938.87,-27.44"/>
</g>
<!-- :modules:database&#45;&gt;:modules:domain -->
<g id="edge10" class="edge">
<title>:modules:database&#45;&gt;:modules:domain</title>
<path fill="none" stroke="black" d="M1101.49,-151.6C989.69,-138.42 787.31,-114.57 672.62,-101.06"/>
<polygon fill="black" stroke="black" points="672.82,-97.55 662.48,-99.86 672,-104.51 672.82,-97.55"/>
</g>
<!-- :modules:datastore&#45;&gt;:modules:common -->
<g id="edge11" class="edge">
<title>:modules:datastore&#45;&gt;:modules:common</title>
<path fill="none" stroke="black" d="M258.49,-145.61C241.55,-137.27 223.94,-125.08 214.29,-108 206.42,-94.07 203.46,-83.77 214.29,-72 249.68,-33.55 576.9,-22.99 748.83,-20.09"/>
<polygon fill="black" stroke="black" points="748.97,-23.59 758.91,-19.93 748.86,-16.59 748.97,-23.59"/>
</g>
<!-- :modules:datastore&#45;&gt;:modules:domain -->
<g id="edge12" class="edge">
<title>:modules:datastore&#45;&gt;:modules:domain</title>
<path fill="none" stroke="black" d="M358.94,-147.09C406.17,-135.49 473.46,-118.96 522.77,-106.85"/>
<polygon fill="black" stroke="black" points="523.81,-110.2 532.69,-104.41 522.14,-103.4 523.81,-110.2"/>
</g>
<!-- :modules:datastore&#45;proto -->
<g id="node10" class="node">
<title>:modules:datastore&#45;proto</title>
<ellipse fill="none" stroke="black" cx="351.29" cy="-90" rx="128.08" ry="18"/>
<text text-anchor="middle" x="351.29" y="-86.3" font-family="Times,serif" font-size="14.00">:modules:datastore&#45;proto</text>
</g>
<!-- :modules:datastore&#45;&gt;:modules:datastore&#45;proto -->
<g id="edge13" class="edge">
<title>:modules:datastore&#45;&gt;:modules:datastore&#45;proto</title>
<path fill="none" stroke="black" d="M314.15,-144.05C319.91,-135.84 326.94,-125.79 333.33,-116.66"/>
<polygon fill="black" stroke="black" points="336.33,-118.47 339.2,-108.28 330.6,-114.46 336.33,-118.47"/>
</g>
<!-- :modules:domain&#45;&gt;:modules:common -->
<g id="edge14" class="edge">
<title>:modules:domain&#45;&gt;:modules:common</title>
<path fill="none" stroke="red" stroke-width="2" d="M639.53,-75.25C682.8,-63.87 744.43,-47.65 790.41,-35.55"/>
<polygon fill="red" stroke="red" stroke-width="2" points="791.49,-38.88 800.27,-32.95 789.7,-32.11 791.49,-38.88"/>
</g>
<!-- :modules:usecase&#45;&gt;:modules:common -->
<g id="edge15" class="edge">
<title>:modules:usecase&#45;&gt;:modules:common</title>
<path fill="none" stroke="black" d="M107.21,-143.98C126.85,-122.89 163.59,-87.79 203.29,-72 299.61,-33.69 590.67,-23.07 748.63,-20.13"/>
<polygon fill="black" stroke="black" points="748.9,-23.62 758.83,-19.94 748.77,-16.62 748.9,-23.62"/>
</g>
<!-- :modules:usecase&#45;&gt;:modules:domain -->
<g id="edge16" class="edge">
<title>:modules:usecase&#45;&gt;:modules:domain</title>
<path fill="none" stroke="black" d="M158.51,-149.41C170.09,-147.51 182.03,-145.63 193.29,-144 324.01,-125.03 357.61,-127.18 488.29,-108 496.2,-106.84 504.46,-105.55 512.68,-104.21"/>
<polygon fill="black" stroke="black" points="513.36,-107.65 522.66,-102.56 512.22,-100.74 513.36,-107.65"/>
</g>
<!-- :modules:navigator&#45;&gt;:modules:common -->
<g id="edge17" class="edge">
<title>:modules:navigator&#45;&gt;:modules:common</title>
<path fill="none" stroke="black" d="M882.72,-298.05C916.98,-291.06 953.83,-277.6 979.29,-252 1002.71,-228.45 994.81,-212.91 999.29,-180 1001.45,-164.15 1005.98,-158.53 999.29,-144 977.78,-97.25 929.2,-61.47 893.97,-40.4"/>
<polygon fill="black" stroke="black" points="895.28,-37.11 884.88,-35.1 891.76,-43.16 895.28,-37.11"/>
</g>
<!-- :modules:navigator&#45;&gt;:modules:designsystem -->
<g id="edge18" class="edge">
<title>:modules:navigator&#45;&gt;:modules:designsystem</title>
<path fill="none" stroke="black" d="M729.49,-291.92C674,-280.36 592.91,-263.46 533.48,-251.08"/>
<polygon fill="black" stroke="black" points="533.9,-247.59 523.4,-248.98 532.47,-254.45 533.9,-247.59"/>
</g>
<!-- :modules:navigator&#45;&gt;:modules:domain -->
<g id="edge19" class="edge">
<title>:modules:navigator&#45;&gt;:modules:domain</title>
<path fill="none" stroke="black" d="M708.07,-296.24C677.5,-288.95 645.14,-275.77 623.29,-252 589.39,-215.12 585.01,-153.48 585.63,-118.13"/>
<polygon fill="black" stroke="black" points="589.13,-118.17 585.96,-108.06 582.14,-117.94 589.13,-118.17"/>
</g>
<!-- :modules:navigator&#45;domain -->
<g id="node11" class="node">
<title>:modules:navigator&#45;domain</title>
<ellipse fill="none" stroke="black" cx="853.29" cy="-162" rx="137.28" ry="18"/>
<text text-anchor="middle" x="853.29" y="-158.3" font-family="Times,serif" font-size="14.00">:modules:navigator&#45;domain</text>
</g>
<!-- :modules:navigator&#45;&gt;:modules:navigator&#45;domain -->
<g id="edge20" class="edge">
<title>:modules:navigator&#45;&gt;:modules:navigator&#45;domain</title>
<path fill="none" stroke="black" d="M882.03,-297.98C912.13,-290.83 942.73,-277.28 961.29,-252 970.76,-239.1 969.75,-229.58 961.29,-216 952.06,-201.18 937.34,-190.39 921.7,-182.58"/>
<polygon fill="black" stroke="black" points="922.97,-179.31 912.42,-178.31 920.05,-185.67 922.97,-179.31"/>
</g>
<!-- :modules:navigator&#45;notifications -->
<g id="node12" class="node">
<title>:modules:navigator&#45;notifications</title>
<ellipse fill="none" stroke="black" cx="792.29" cy="-234" rx="159.77" ry="18"/>
<text text-anchor="middle" x="792.29" y="-230.3" font-family="Times,serif" font-size="14.00">:modules:navigator&#45;notifications</text>
</g>
<!-- :modules:navigator&#45;&gt;:modules:navigator&#45;notifications -->
<g id="edge21" class="edge">
<title>:modules:navigator&#45;&gt;:modules:navigator&#45;notifications</title>
<path fill="none" stroke="red" stroke-width="2" d="M792.29,-287.7C792.29,-279.98 792.29,-270.71 792.29,-262.11"/>
<polygon fill="red" stroke="red" stroke-width="2" points="795.79,-262.1 792.29,-252.1 788.79,-262.1 795.79,-262.1"/>
</g>
<!-- :modules:navigator&#45;quicktile&#45;&gt;:modules:common -->
<g id="edge22" class="edge">
<title>:modules:navigator&#45;quicktile&#45;&gt;:modules:common</title>
<path fill="none" stroke="black" d="M965.68,-360.01C976.42,-350.6 988.41,-338 995.29,-324 1030.81,-251.77 1036.3,-221.7 1015.29,-144 1005.62,-108.24 1000.91,-96.69 973.29,-72 956.14,-56.67 933.83,-45.18 913.11,-36.9"/>
<polygon fill="black" stroke="black" points="914.32,-33.61 903.73,-33.31 911.82,-40.15 914.32,-33.61"/>
</g>
<!-- :modules:navigator&#45;quicktile&#45;&gt;:modules:navigator -->
<g id="edge23" class="edge">
<title>:modules:navigator&#45;quicktile&#45;&gt;:modules:navigator</title>
<path fill="none" stroke="red" stroke-width="2" d="M907.51,-360.41C886.04,-350.46 858.6,-337.74 835.87,-327.2"/>
<polygon fill="red" stroke="red" stroke-width="2" points="837.33,-324.02 826.78,-322.99 834.38,-330.37 837.33,-324.02"/>
</g>
<!-- :modules:navigator&#45;quicktile&#45;&gt;:modules:navigator&#45;domain -->
<g id="edge24" class="edge">
<title>:modules:navigator&#45;quicktile&#45;&gt;:modules:navigator&#45;domain</title>
<path fill="none" stroke="black" d="M954.93,-359.95C974.62,-328.76 1009.56,-261.57 979.29,-216 968.82,-200.24 952.65,-189.15 935.35,-181.36"/>
<polygon fill="black" stroke="black" points="936.22,-177.94 925.64,-177.36 933.56,-184.41 936.22,-177.94"/>
</g>
<!-- :modules:navigator&#45;domain&#45;&gt;:modules:common -->
<g id="edge26" class="edge">
<title>:modules:navigator&#45;domain&#45;&gt;:modules:common</title>
<path fill="none" stroke="black" d="M853.29,-143.87C853.29,-119.67 853.29,-75.21 853.29,-46.39"/>
<polygon fill="black" stroke="black" points="856.79,-46.19 853.29,-36.19 849.79,-46.19 856.79,-46.19"/>
</g>
<!-- :modules:navigator&#45;domain&#45;&gt;:modules:domain -->
<g id="edge25" class="edge">
<title>:modules:navigator&#45;domain&#45;&gt;:modules:domain</title>
<path fill="none" stroke="red" stroke-width="2" d="M794.92,-145.64C751.84,-134.3 693.31,-118.9 649.38,-107.34"/>
<polygon fill="red" stroke="red" stroke-width="2" points="650.23,-103.94 639.67,-104.78 648.45,-110.71 650.23,-103.94"/>
</g>
<!-- :modules:navigator&#45;notifications&#45;&gt;:modules:common -->
<g id="edge29" class="edge">
<title>:modules:navigator&#45;notifications&#45;&gt;:modules:common</title>
<path fill="none" stroke="black" d="M748.6,-216.57C732.65,-208.2 716.32,-196.27 707.29,-180 699.53,-166.01 700.6,-158.53 707.29,-144 728.81,-97.25 777.38,-61.47 812.61,-40.4"/>
<polygon fill="black" stroke="black" points="814.82,-43.16 821.71,-35.1 811.3,-37.11 814.82,-43.16"/>
</g>
<!-- :modules:navigator&#45;notifications&#45;&gt;:modules:domain -->
<g id="edge28" class="edge">
<title>:modules:navigator&#45;notifications&#45;&gt;:modules:domain</title>
<path fill="none" stroke="black" d="M745.62,-216.74C723.02,-207.72 696.11,-195.23 674.29,-180 648.25,-161.82 623.43,-135.17 607.01,-115.78"/>
<polygon fill="black" stroke="black" points="609.6,-113.41 600.51,-107.95 604.21,-117.88 609.6,-113.41"/>
</g>
<!-- :modules:navigator&#45;notifications&#45;&gt;:modules:navigator&#45;domain -->
<g id="edge27" class="edge">
<title>:modules:navigator&#45;notifications&#45;&gt;:modules:navigator&#45;domain</title>
<path fill="none" stroke="red" stroke-width="2" d="M807.06,-216.05C814.44,-207.58 823.52,-197.17 831.67,-187.82"/>
<polygon fill="red" stroke="red" stroke-width="2" points="834.31,-190.11 838.24,-180.28 829.03,-185.51 834.31,-190.11"/>
</g>
</g>
</svg>
