<?xml version="1.0" encoding="UTF-8" standalone="no"?>
<!DOCTYPE svg PUBLIC "-//W3C//DTD SVG 1.1//EN"
 "http://www.w3.org/Graphics/SVG/1.1/DTD/svg11.dtd">
<!-- Generated by graphviz version 2.43.0 (0)
 -->
<!-- Title: G Pages: 1 -->
<svg width="1046pt" height="404pt"
 viewBox="0.00 0.00 1045.74 404.00" xmlns="http://www.w3.org/2000/svg" xmlns:xlink="http://www.w3.org/1999/xlink">
<g id="graph0" class="graph" transform="scale(1 1) rotate(0) translate(4 400)">
<title>G</title>
<polygon fill="white" stroke="transparent" points="-4,4 -4,-400 1041.74,-400 1041.74,4 -4,4"/>
<!-- :app -->
<g id="node1" class="node">
<title>:app</title>
<ellipse fill="none" stroke="black" cx="366" cy="-378" rx="30.59" ry="18"/>
<text text-anchor="middle" x="366" y="-374.3" font-family="Times,serif" font-size="14.00">:app</text>
</g>
<!-- :core:common -->
<g id="node2" class="node">
<title>:core:common</title>
<ellipse fill="none" stroke="black" cx="413" cy="-18" rx="75.29" ry="18"/>
<text text-anchor="middle" x="413" y="-14.3" font-family="Times,serif" font-size="14.00">:core:common</text>
</g>
<!-- :app&#45;&gt;:core:common -->
<g id="edge1" class="edge">
<title>:app&#45;&gt;:core:common</title>
<path fill="none" stroke="black" d="M336.97,-372.21C250.41,-357.1 0,-307.16 0,-235 0,-235 0,-235 0,-161 0,-90.27 219.34,-47.22 338.33,-29.06"/>
<polygon fill="black" stroke="black" points="339.1,-32.49 348.47,-27.54 338.06,-25.56 339.1,-32.49"/>
</g>
<!-- :core:designsystem -->
<g id="node3" class="node">
<title>:core:designsystem</title>
<ellipse fill="none" stroke="black" cx="937" cy="-234" rx="100.98" ry="18"/>
<text text-anchor="middle" x="937" y="-230.3" font-family="Times,serif" font-size="14.00">:core:designsystem</text>
</g>
<!-- :app&#45;&gt;:core:designsystem -->
<g id="edge2" class="edge">
<title>:app&#45;&gt;:core:designsystem</title>
<path fill="none" stroke="black" d="M396.37,-375.89C461.91,-372.82 620.93,-361.78 748,-324 803.44,-307.52 863.16,-277.03 900.31,-256.38"/>
<polygon fill="black" stroke="black" points="902.24,-259.31 909.25,-251.36 898.81,-253.21 902.24,-259.31"/>
</g>
<!-- :core:database -->
<g id="node4" class="node">
<title>:core:database</title>
<ellipse fill="none" stroke="black" cx="107" cy="-162" rx="78.79" ry="18"/>
<text text-anchor="middle" x="107" y="-158.3" font-family="Times,serif" font-size="14.00">:core:database</text>
</g>
<!-- :app&#45;&gt;:core:database -->
<g id="edge3" class="edge">
<title>:app&#45;&gt;:core:database</title>
<path fill="none" stroke="black" d="M349.01,-362.96C305.33,-326.87 188.83,-230.61 134.99,-186.13"/>
<polygon fill="black" stroke="black" points="137.15,-183.37 127.22,-179.7 132.7,-188.77 137.15,-183.37"/>
</g>
<!-- :core:datastore -->
<g id="node5" class="node">
<title>:core:datastore</title>
<ellipse fill="none" stroke="black" cx="285" cy="-162" rx="81.49" ry="18"/>
<text text-anchor="middle" x="285" y="-158.3" font-family="Times,serif" font-size="14.00">:core:datastore</text>
</g>
<!-- :app&#45;&gt;:core:datastore -->
<g id="edge4" class="edge">
<title>:app&#45;&gt;:core:datastore</title>
<path fill="none" stroke="black" d="M359.64,-360.21C345.63,-323.19 311.99,-234.3 295.07,-189.6"/>
<polygon fill="black" stroke="black" points="298.25,-188.12 291.44,-180.01 291.71,-190.6 298.25,-188.12"/>
</g>
<!-- :core:domain -->
<g id="node6" class="node">
<title>:core:domain</title>
<ellipse fill="none" stroke="black" cx="413" cy="-90" rx="70.69" ry="18"/>
<text text-anchor="middle" x="413" y="-86.3" font-family="Times,serif" font-size="14.00">:core:domain</text>
</g>
<!-- :app&#45;&gt;:core:domain -->
<g id="edge5" class="edge">
<title>:app&#45;&gt;:core:domain</title>
<path fill="none" stroke="black" d="M368.8,-359.97C376.65,-312.19 398.93,-176.62 408.52,-118.27"/>
<polygon fill="black" stroke="black" points="411.99,-118.74 410.16,-108.31 405.08,-117.61 411.99,-118.74"/>
</g>
<!-- :core:navigator -->
<g id="node7" class="node">
<title>:core:navigator</title>
<ellipse fill="none" stroke="black" cx="658" cy="-306" rx="81.49" ry="18"/>
<text text-anchor="middle" x="658" y="-302.3" font-family="Times,serif" font-size="14.00">:core:navigator</text>
</g>
<!-- :app&#45;&gt;:core:navigator -->
<g id="edge6" class="edge">
<title>:app&#45;&gt;:core:navigator</title>
<path fill="none" stroke="red" stroke-width="2" d="M393.73,-370.35C439.68,-359.34 532.7,-337.04 595.2,-322.06"/>
<polygon fill="red" stroke="red" stroke-width="2" points="596.05,-325.45 604.95,-319.72 594.41,-318.64 596.05,-325.45"/>
</g>
<!-- :core:database&#45;&gt;:core:common -->
<g id="edge7" class="edge">
<title>:core:database&#45;&gt;:core:common</title>
<path fill="none" stroke="black" d="M140.33,-145.53C196.35,-119.54 309.27,-67.13 370.76,-38.6"/>
<polygon fill="black" stroke="black" points="372.58,-41.62 380.17,-34.23 369.63,-35.27 372.58,-41.62"/>
</g>
<!-- :core:database&#45;&gt;:core:domain -->
<g id="edge8" class="edge">
<title>:core:database&#45;&gt;:core:domain</title>
<path fill="none" stroke="black" d="M160.65,-148.73C214.25,-136.46 296.52,-117.65 352.44,-104.85"/>
<polygon fill="black" stroke="black" points="353.24,-108.26 362.21,-102.62 351.68,-101.44 353.24,-108.26"/>
</g>
<!-- :core:datastore&#45;&gt;:core:common -->
<g id="edge9" class="edge">
<title>:core:datastore&#45;&gt;:core:common</title>
<path fill="none" stroke="black" d="M291.34,-143.71C299,-124.55 313.35,-93.52 333,-72 344.43,-59.49 359.41,-48.55 373.31,-39.91"/>
<polygon fill="black" stroke="black" points="375.45,-42.71 382.24,-34.58 371.86,-36.7 375.45,-42.71"/>
</g>
<!-- :core:datastore&#45;&gt;:core:domain -->
<g id="edge10" class="edge">
<title>:core:datastore&#45;&gt;:core:domain</title>
<path fill="none" stroke="black" d="M314.05,-145.12C332.26,-135.16 355.91,-122.22 375.53,-111.49"/>
<polygon fill="black" stroke="black" points="377.42,-114.45 384.51,-106.58 374.06,-108.31 377.42,-114.45"/>
</g>
<!-- :core:domain&#45;&gt;:core:common -->
<g id="edge11" class="edge">
<title>:core:domain&#45;&gt;:core:common</title>
<path fill="none" stroke="red" stroke-width="2" d="M413,-71.7C413,-63.98 413,-54.71 413,-46.11"/>
<polygon fill="red" stroke="red" stroke-width="2" points="416.5,-46.1 413,-36.1 409.5,-46.1 416.5,-46.1"/>
</g>
<!-- :core:navigator&#45;&gt;:core:common -->
<g id="edge12" class="edge">
<title>:core:navigator&#45;&gt;:core:common</title>
<path fill="none" stroke="black" d="M711.85,-292.43C733.14,-284.54 755.48,-271.92 768,-252 777.97,-236.12 767.64,-161.53 760,-144 743.14,-105.28 734.61,-93.05 698,-72 637.06,-36.96 557.79,-24.38 498.32,-20.18"/>
<polygon fill="black" stroke="black" points="498.41,-16.68 488.2,-19.53 497.96,-23.66 498.41,-16.68"/>
</g>
<!-- :core:navigator&#45;&gt;:core:designsystem -->
<g id="edge13" class="edge">
<title>:core:navigator&#45;&gt;:core:designsystem</title>
<path fill="none" stroke="black" d="M709.82,-292C755.38,-280.57 821.91,-263.87 871.22,-251.51"/>
<polygon fill="black" stroke="black" points="872.3,-254.84 881.15,-249.01 870.6,-248.05 872.3,-254.84"/>
</g>
<!-- :core:navigator&#45;&gt;:core:domain -->
<g id="edge14" class="edge">
<title>:core:navigator&#45;&gt;:core:domain</title>
<path fill="none" stroke="black" d="M591.47,-295.57C538.66,-286.74 470.55,-271.92 451,-252 415.73,-216.05 410.95,-153.81 411.44,-118.16"/>
<polygon fill="black" stroke="black" points="414.94,-118.11 411.73,-108.01 407.94,-117.91 414.94,-118.11"/>
</g>
<!-- :core:navigator&#45;domain -->
<g id="node8" class="node">
<title>:core:navigator&#45;domain</title>
<ellipse fill="none" stroke="black" cx="616" cy="-162" rx="118.08" ry="18"/>
<text text-anchor="middle" x="616" y="-158.3" font-family="Times,serif" font-size="14.00">:core:navigator&#45;domain</text>
</g>
<!-- :core:navigator&#45;&gt;:core:navigator&#45;domain -->
<g id="edge15" class="edge">
<title>:core:navigator&#45;&gt;:core:navigator&#45;domain</title>
<path fill="none" stroke="black" d="M702.76,-290.86C721.09,-282.61 740.45,-270.16 751,-252 759.04,-238.17 760.01,-229.22 751,-216 739.3,-198.84 721.12,-187.23 701.85,-179.38"/>
<polygon fill="black" stroke="black" points="702.92,-176.05 692.33,-175.83 700.47,-182.6 702.92,-176.05"/>
</g>
<!-- :core:navigator&#45;notifications -->
<g id="node9" class="node">
<title>:core:navigator&#45;notifications</title>
<ellipse fill="none" stroke="black" cx="601" cy="-234" rx="141.07" ry="18"/>
<text text-anchor="middle" x="601" y="-230.3" font-family="Times,serif" font-size="14.00">:core:navigator&#45;notifications</text>
</g>
<!-- :core:navigator&#45;&gt;:core:navigator&#45;notifications -->
<g id="edge16" class="edge">
<title>:core:navigator&#45;&gt;:core:navigator&#45;notifications</title>
<path fill="none" stroke="red" stroke-width="2" d="M644.2,-288.05C637.37,-279.67 628.99,-269.38 621.44,-260.1"/>
<polygon fill="red" stroke="red" stroke-width="2" points="624.1,-257.82 615.07,-252.28 618.67,-262.24 624.1,-257.82"/>
</g>
<!-- :core:navigator&#45;domain&#45;&gt;:core:common -->
<g id="edge18" class="edge">
<title>:core:navigator&#45;domain&#45;&gt;:core:common</title>
<path fill="none" stroke="black" d="M593.53,-144.31C569.02,-126.22 528.54,-96.61 493,-72 477.92,-61.55 461,-50.28 446.63,-40.84"/>
<polygon fill="black" stroke="black" points="448.32,-37.76 438.04,-35.21 444.49,-43.62 448.32,-37.76"/>
</g>
<!-- :core:navigator&#45;domain&#45;&gt;:core:domain -->
<g id="edge17" class="edge">
<title>:core:navigator&#45;domain&#45;&gt;:core:domain</title>
<path fill="none" stroke="red" stroke-width="2" d="M570.44,-145.29C538.56,-134.3 495.96,-119.61 463.11,-108.28"/>
<polygon fill="red" stroke="red" stroke-width="2" points="463.85,-104.83 453.25,-104.88 461.56,-111.45 463.85,-104.83"/>
</g>
<!-- :core:navigator&#45;notifications&#45;&gt;:core:common -->
<g id="edge21" class="edge">
<title>:core:navigator&#45;notifications&#45;&gt;:core:common</title>
<path fill="none" stroke="black" d="M685.65,-219.59C707.94,-211.78 729.5,-199.45 743,-180 752.12,-166.86 752.09,-157.17 743,-144 687.61,-63.79 573.6,-35 495.23,-24.69"/>
<polygon fill="black" stroke="black" points="495.26,-21.17 484.9,-23.42 494.4,-28.12 495.26,-21.17"/>
</g>
<!-- :core:navigator&#45;notifications&#45;&gt;:core:domain -->
<g id="edge20" class="edge">
<title>:core:navigator&#45;notifications&#45;&gt;:core:domain</title>
<path fill="none" stroke="black" d="M556.03,-216.85C534.53,-207.89 509.16,-195.42 489,-180 465.49,-162.01 444.12,-135.68 430.08,-116.32"/>
<polygon fill="black" stroke="black" points="432.8,-114.1 424.16,-107.97 427.09,-118.15 432.8,-114.1"/>
</g>
<!-- :core:navigator&#45;notifications&#45;&gt;:core:navigator&#45;domain -->
<g id="edge19" class="edge">
<title>:core:navigator&#45;notifications&#45;&gt;:core:navigator&#45;domain</title>
<path fill="none" stroke="red" stroke-width="2" d="M604.71,-215.7C606.36,-207.98 608.35,-198.71 610.19,-190.11"/>
<polygon fill="red" stroke="red" stroke-width="2" points="613.66,-190.62 612.33,-180.1 606.82,-189.15 613.66,-190.62"/>
</g>
</g>
</svg>
