<?xml version="1.0" encoding="UTF-8" standalone="no"?>
<!DOCTYPE svg PUBLIC "-//W3C//DTD SVG 1.1//EN"
 "http://www.w3.org/Graphics/SVG/1.1/DTD/svg11.dtd">
<!-- Generated by graphviz version 2.43.0 (0)
 -->
<!-- Title: G Pages: 1 -->
<svg width="1534pt" height="476pt"
 viewBox="0.00 0.00 1534.00 476.00" xmlns="http://www.w3.org/2000/svg" xmlns:xlink="http://www.w3.org/1999/xlink">
<g id="graph0" class="graph" transform="scale(1 1) rotate(0) translate(4 472)">
<title>G</title>
<polygon fill="white" stroke="transparent" points="-4,4 -4,-472 1530,-472 1530,4 -4,4"/>
<!-- :app -->
<g id="node1" class="node">
<title>:app</title>
<ellipse fill="none" stroke="black" cx="561" cy="-450" rx="30.59" ry="18"/>
<text text-anchor="middle" x="561" y="-446.3" font-family="Times,serif" font-size="14.00">:app</text>
</g>
<!-- :modules:core&#45;android -->
<g id="node2" class="node">
<title>:modules:core&#45;android</title>
<ellipse fill="none" stroke="black" cx="864" cy="-162" rx="114.28" ry="18"/>
<text text-anchor="middle" x="864" y="-158.3" font-family="Times,serif" font-size="14.00">:modules:core&#45;android</text>
</g>
<!-- :app&#45;&gt;:modules:core&#45;android -->
<g id="edge1" class="edge">
<title>:app&#45;&gt;:modules:core&#45;android</title>
<path fill="none" stroke="black" d="M582.8,-437.15C631.05,-410.01 748.27,-338.94 820,-252 835.44,-233.29 847.2,-208.26 854.66,-189.51"/>
<polygon fill="black" stroke="black" points="857.96,-190.67 858.26,-180.08 851.42,-188.17 857.96,-190.67"/>
</g>
<!-- :modules:designsystem -->
<g id="node3" class="node">
<title>:modules:designsystem</title>
<ellipse fill="none" stroke="black" cx="224" cy="-162" rx="119.68" ry="18"/>
<text text-anchor="middle" x="224" y="-158.3" font-family="Times,serif" font-size="14.00">:modules:designsystem</text>
</g>
<!-- :app&#45;&gt;:modules:designsystem -->
<g id="edge2" class="edge">
<title>:app&#45;&gt;:modules:designsystem</title>
<path fill="none" stroke="black" d="M543.04,-435.08C502.4,-403.43 400.6,-323.28 319,-252 294.62,-230.7 267.77,-205.37 248.86,-187.19"/>
<polygon fill="black" stroke="black" points="251.15,-184.53 241.52,-180.11 246.29,-189.57 251.15,-184.53"/>
</g>
<!-- :modules:database -->
<g id="node4" class="node">
<title>:modules:database</title>
<ellipse fill="none" stroke="black" cx="714" cy="-234" rx="97.48" ry="18"/>
<text text-anchor="middle" x="714" y="-230.3" font-family="Times,serif" font-size="14.00">:modules:database</text>
</g>
<!-- :app&#45;&gt;:modules:database -->
<g id="edge3" class="edge">
<title>:app&#45;&gt;:modules:database</title>
<path fill="none" stroke="black" d="M572.25,-433.26C598.52,-396.52 664.07,-304.84 695.98,-260.21"/>
<polygon fill="black" stroke="black" points="698.92,-262.11 701.89,-251.94 693.23,-258.04 698.92,-262.11"/>
</g>
<!-- :modules:datastore -->
<g id="node5" class="node">
<title>:modules:datastore</title>
<ellipse fill="none" stroke="black" cx="498" cy="-234" rx="100.18" ry="18"/>
<text text-anchor="middle" x="498" y="-230.3" font-family="Times,serif" font-size="14.00">:modules:datastore</text>
</g>
<!-- :app&#45;&gt;:modules:datastore -->
<g id="edge4" class="edge">
<title>:app&#45;&gt;:modules:datastore</title>
<path fill="none" stroke="black" d="M556.06,-432.21C545.16,-395.19 518.99,-306.3 505.83,-261.6"/>
<polygon fill="black" stroke="black" points="509.19,-260.61 503.01,-252.01 502.47,-262.59 509.19,-260.61"/>
</g>
<!-- :modules:domain -->
<g id="node6" class="node">
<title>:modules:domain</title>
<ellipse fill="none" stroke="black" cx="646" cy="-90" rx="89.88" ry="18"/>
<text text-anchor="middle" x="646" y="-86.3" font-family="Times,serif" font-size="14.00">:modules:domain</text>
</g>
<!-- :app&#45;&gt;:modules:domain -->
<g id="edge5" class="edge">
<title>:app&#45;&gt;:modules:domain</title>
<path fill="none" stroke="black" d="M530.62,-447.37C419,-440.56 38,-409.79 38,-307 38,-307 38,-307 38,-233 38,-189.45 43.46,-169.17 79,-144 116.37,-117.54 396.54,-101.62 548.56,-94.84"/>
<polygon fill="black" stroke="black" points="549,-98.33 558.83,-94.39 548.69,-91.34 549,-98.33"/>
</g>
<!-- :modules:usecase -->
<g id="node7" class="node">
<title>:modules:usecase</title>
<ellipse fill="none" stroke="black" cx="172" cy="-306" rx="92.08" ry="18"/>
<text text-anchor="middle" x="172" y="-302.3" font-family="Times,serif" font-size="14.00">:modules:usecase</text>
</g>
<!-- :app&#45;&gt;:modules:usecase -->
<g id="edge6" class="edge">
<title>:app&#45;&gt;:modules:usecase</title>
<path fill="none" stroke="black" d="M530.68,-447.57C478.96,-444.18 371.32,-432.9 289,-396 253.38,-380.03 218.55,-351.37 196.29,-330.89"/>
<polygon fill="black" stroke="black" points="198.65,-328.3 188.96,-324.02 193.86,-333.41 198.65,-328.3"/>
</g>
<!-- :modules:navigator -->
<g id="node8" class="node">
<title>:modules:navigator</title>
<ellipse fill="none" stroke="black" cx="1036" cy="-306" rx="100.18" ry="18"/>
<text text-anchor="middle" x="1036" y="-302.3" font-family="Times,serif" font-size="14.00">:modules:navigator</text>
</g>
<!-- :app&#45;&gt;:modules:navigator -->
<g id="edge7" class="edge">
<title>:app&#45;&gt;:modules:navigator</title>
<path fill="none" stroke="black" d="M591.54,-448.53C646.45,-446.62 764.36,-437.54 853,-396 875.57,-385.42 874.49,-372.59 896,-360 920.76,-345.51 950.2,-333.66 975.68,-324.87"/>
<polygon fill="black" stroke="black" points="976.88,-328.16 985.24,-321.65 974.64,-321.53 976.88,-328.16"/>
</g>
<!-- :modules:navigator&#45;quicktile -->
<g id="node9" class="node">
<title>:modules:navigator&#45;quicktile</title>
<ellipse fill="none" stroke="black" cx="1048" cy="-378" rx="142.97" ry="18"/>
<text text-anchor="middle" x="1048" y="-374.3" font-family="Times,serif" font-size="14.00">:modules:navigator&#45;quicktile</text>
</g>
<!-- :app&#45;&gt;:modules:navigator&#45;quicktile -->
<g id="edge8" class="edge">
<title>:app&#45;&gt;:modules:navigator&#45;quicktile</title>
<path fill="none" stroke="red" stroke-width="2" d="M590.37,-444.78C659.44,-434.85 834.81,-409.64 947.31,-393.47"/>
<polygon fill="red" stroke="red" stroke-width="2" points="947.92,-396.92 957.32,-392.03 946.92,-389.99 947.92,-396.92"/>
</g>
<!-- :modules:resources -->
<g id="node10" class="node">
<title>:modules:resources</title>
<ellipse fill="none" stroke="black" cx="797" cy="-18" rx="100.98" ry="18"/>
<text text-anchor="middle" x="797" y="-14.3" font-family="Times,serif" font-size="14.00">:modules:resources</text>
</g>
<!-- :app&#45;&gt;:modules:resources -->
<g id="edge9" class="edge">
<title>:app&#45;&gt;:modules:resources</title>
<path fill="none" stroke="black" d="M530.53,-448.48C437.46,-446.46 158.36,-437.03 79,-396 32.02,-371.71 0,-359.89 0,-307 0,-307 0,-307 0,-161 0,-91.09 481.44,-44.07 695.95,-26.59"/>
<polygon fill="black" stroke="black" points="696.28,-30.08 705.96,-25.78 695.71,-23.1 696.28,-30.08"/>
</g>
<!-- :modules:storage -->
<g id="node11" class="node">
<title>:modules:storage</title>
<ellipse fill="none" stroke="black" cx="1218" cy="-18" rx="90.98" ry="18"/>
<text text-anchor="middle" x="1218" y="-14.3" font-family="Times,serif" font-size="14.00">:modules:storage</text>
</g>
<!-- :app&#45;&gt;:modules:storage -->
<g id="edge10" class="edge">
<title>:app&#45;&gt;:modules:storage</title>
<path fill="none" stroke="black" d="M591.47,-447.81C755.51,-440.99 1526,-403.84 1526,-307 1526,-307 1526,-307 1526,-161 1526,-66.79 1405.68,-34.87 1315.45,-24.18"/>
<polygon fill="black" stroke="black" points="1315.76,-20.7 1305.44,-23.07 1314.99,-27.65 1315.76,-20.7"/>
</g>
<!-- :modules:designsystem&#45;&gt;:modules:domain -->
<g id="edge11" class="edge">
<title>:modules:designsystem&#45;&gt;:modules:domain</title>
<path fill="none" stroke="black" d="M301.4,-148.16C377.57,-135.53 493.21,-116.34 569.18,-103.74"/>
<polygon fill="black" stroke="black" points="569.87,-107.18 579.17,-102.09 568.73,-100.27 569.87,-107.18"/>
</g>
<!-- :modules:designsystem&#45;&gt;:modules:resources -->
<g id="edge12" class="edge">
<title>:modules:designsystem&#45;&gt;:modules:resources</title>
<path fill="none" stroke="black" d="M275.78,-145.7C339.36,-127.15 450.64,-95.47 547,-72 605.38,-57.78 671.95,-43.78 721.71,-33.74"/>
<polygon fill="black" stroke="black" points="722.63,-37.12 731.75,-31.72 721.25,-30.26 722.63,-37.12"/>
</g>
<!-- :modules:database&#45;&gt;:modules:core&#45;android -->
<g id="edge13" class="edge">
<title>:modules:database&#45;&gt;:modules:core&#45;android</title>
<path fill="none" stroke="black" d="M748.04,-217.12C769.39,-207.15 797.12,-194.21 820.11,-183.48"/>
<polygon fill="black" stroke="black" points="821.74,-186.59 829.32,-179.19 818.78,-180.24 821.74,-186.59"/>
</g>
<!-- :modules:database&#45;&gt;:modules:domain -->
<g id="edge14" class="edge">
<title>:modules:database&#45;&gt;:modules:domain</title>
<path fill="none" stroke="black" d="M705.8,-215.87C694.06,-191.35 672.35,-146.03 658.57,-117.26"/>
<polygon fill="black" stroke="black" points="661.71,-115.7 654.23,-108.19 655.39,-118.72 661.71,-115.7"/>
</g>
<!-- :modules:database&#45;&gt;:modules:storage -->
<g id="edge15" class="edge">
<title>:modules:database&#45;&gt;:modules:storage</title>
<path fill="none" stroke="black" d="M714.42,-215.71C715.87,-195.65 721.34,-162.92 741,-144 797.25,-89.87 1015.43,-49.42 1136.28,-30.64"/>
<polygon fill="black" stroke="black" points="1136.89,-34.09 1146.24,-29.11 1135.82,-27.17 1136.89,-34.09"/>
</g>
<!-- :modules:datastore&#45;&gt;:modules:core&#45;android -->
<g id="edge16" class="edge">
<title>:modules:datastore&#45;&gt;:modules:core&#45;android</title>
<path fill="none" stroke="black" d="M563.86,-220.4C625.72,-208.57 718.38,-190.85 784.37,-178.23"/>
<polygon fill="black" stroke="black" points="785.15,-181.64 794.31,-176.33 783.83,-174.77 785.15,-181.64"/>
</g>
<!-- :modules:datastore&#45;&gt;:modules:domain -->
<g id="edge17" class="edge">
<title>:modules:datastore&#45;&gt;:modules:domain</title>
<path fill="none" stroke="black" d="M562.02,-220.03C585.61,-212.17 610.55,-199.7 627,-180 641.29,-162.89 645.6,-137.6 646.59,-118.35"/>
<polygon fill="black" stroke="black" points="650.09,-118.18 646.84,-108.1 643.09,-118.01 650.09,-118.18"/>
</g>
<!-- :modules:datastore&#45;proto -->
<g id="node12" class="node">
<title>:modules:datastore&#45;proto</title>
<ellipse fill="none" stroke="black" cx="490" cy="-162" rx="128.08" ry="18"/>
<text text-anchor="middle" x="490" y="-158.3" font-family="Times,serif" font-size="14.00">:modules:datastore&#45;proto</text>
</g>
<!-- :modules:datastore&#45;&gt;:modules:datastore&#45;proto -->
<g id="edge18" class="edge">
<title>:modules:datastore&#45;&gt;:modules:datastore&#45;proto</title>
<path fill="none" stroke="black" d="M496.02,-215.7C495.14,-207.98 494.08,-198.71 493.1,-190.11"/>
<polygon fill="black" stroke="black" points="496.57,-189.64 491.95,-180.1 489.61,-190.44 496.57,-189.64"/>
</g>
<!-- :modules:domain&#45;&gt;:modules:resources -->
<g id="edge20" class="edge">
<title>:modules:domain&#45;&gt;:modules:resources</title>
<path fill="none" stroke="black" d="M679.89,-73.29C701.52,-63.26 729.77,-50.17 753.11,-39.35"/>
<polygon fill="black" stroke="black" points="754.84,-42.4 762.44,-35.02 751.9,-36.05 754.84,-42.4"/>
</g>
<!-- :modules:domain&#45;&gt;:modules:storage -->
<g id="edge19" class="edge">
<title>:modules:domain&#45;&gt;:modules:storage</title>
<path fill="none" stroke="red" stroke-width="2" d="M711.95,-77.72C724.56,-75.7 737.68,-73.7 750,-72 881.29,-53.85 1033.95,-37.43 1128.28,-27.83"/>
<polygon fill="red" stroke="red" stroke-width="2" points="1128.76,-31.3 1138.36,-26.81 1128.05,-24.34 1128.76,-31.3"/>
</g>
<!-- :modules:usecase&#45;&gt;:modules:domain -->
<g id="edge21" class="edge">
<title>:modules:usecase&#45;&gt;:modules:domain</title>
<path fill="none" stroke="black" d="M152.73,-288.35C118.64,-256.94 54.9,-188.15 95,-144 124.77,-111.23 397.15,-98.18 547.47,-93.43"/>
<polygon fill="black" stroke="black" points="547.74,-96.93 557.63,-93.12 547.53,-89.93 547.74,-96.93"/>
</g>
<!-- :modules:navigator&#45;&gt;:modules:core&#45;android -->
<g id="edge22" class="edge">
<title>:modules:navigator&#45;&gt;:modules:core&#45;android</title>
<path fill="none" stroke="black" d="M1015.59,-288.15C984.95,-262.85 926.94,-214.96 892.25,-186.32"/>
<polygon fill="black" stroke="black" points="894.32,-183.49 884.38,-179.82 889.86,-188.89 894.32,-183.49"/>
</g>
<!-- :modules:navigator&#45;&gt;:modules:designsystem -->
<g id="edge23" class="edge">
<title>:modules:navigator&#45;&gt;:modules:designsystem</title>
<path fill="none" stroke="black" d="M938.31,-301.9C783.52,-296.17 489.15,-281.69 389,-252 375.64,-248.04 306.36,-209.57 261.92,-184.52"/>
<polygon fill="black" stroke="black" points="263.54,-181.42 253.12,-179.55 260.1,-187.52 263.54,-181.42"/>
</g>
<!-- :modules:navigator&#45;&gt;:modules:domain -->
<g id="edge24" class="edge">
<title>:modules:navigator&#45;&gt;:modules:domain</title>
<path fill="none" stroke="black" d="M1031.29,-287.78C1020.13,-247.25 992.6,-148.86 987,-144 951.44,-113.14 830.98,-100.19 743.29,-94.8"/>
<polygon fill="black" stroke="black" points="743.49,-91.3 733.31,-94.21 743.08,-98.29 743.49,-91.3"/>
</g>
<!-- :modules:navigator&#45;&gt;:modules:resources -->
<g id="edge27" class="edge">
<title>:modules:navigator&#45;&gt;:modules:resources</title>
<path fill="none" stroke="black" d="M1037.43,-287.67C1039.14,-256.05 1038.5,-188.16 1007,-144 969.23,-91.06 901.4,-56.7 853.05,-37.65"/>
<polygon fill="black" stroke="black" points="854.25,-34.36 843.66,-34.05 851.74,-40.9 854.25,-34.36"/>
</g>
<!-- :modules:navigator&#45;&gt;:modules:storage -->
<g id="edge28" class="edge">
<title>:modules:navigator&#45;&gt;:modules:storage</title>
<path fill="none" stroke="black" d="M1129.77,-299.48C1224.53,-292.53 1363.42,-278.21 1410,-252 1446.06,-231.71 1455.08,-218.96 1469,-180 1498.75,-96.76 1377.16,-52.94 1292.88,-32.98"/>
<polygon fill="black" stroke="black" points="1293.58,-29.55 1283.05,-30.72 1292.01,-36.37 1293.58,-29.55"/>
</g>
<!-- :modules:navigator&#45;domain -->
<g id="node13" class="node">
<title>:modules:navigator&#45;domain</title>
<ellipse fill="none" stroke="black" cx="1323" cy="-162" rx="137.28" ry="18"/>
<text text-anchor="middle" x="1323" y="-158.3" font-family="Times,serif" font-size="14.00">:modules:navigator&#45;domain</text>
</g>
<!-- :modules:navigator&#45;&gt;:modules:navigator&#45;domain -->
<g id="edge25" class="edge">
<title>:modules:navigator&#45;&gt;:modules:navigator&#45;domain</title>
<path fill="none" stroke="black" d="M1136.03,-304.22C1229.81,-301.1 1360.36,-289.84 1393,-252 1403.45,-239.88 1400.12,-230.33 1393,-216 1386.84,-203.6 1376.23,-193.33 1365.11,-185.23"/>
<polygon fill="black" stroke="black" points="1366.82,-182.16 1356.58,-179.47 1362.91,-187.96 1366.82,-182.16"/>
</g>
<!-- :modules:navigator&#45;notifications -->
<g id="node14" class="node">
<title>:modules:navigator&#45;notifications</title>
<ellipse fill="none" stroke="black" cx="1224" cy="-234" rx="159.77" ry="18"/>
<text text-anchor="middle" x="1224" y="-230.3" font-family="Times,serif" font-size="14.00">:modules:navigator&#45;notifications</text>
</g>
<!-- :modules:navigator&#45;&gt;:modules:navigator&#45;notifications -->
<g id="edge26" class="edge">
<title>:modules:navigator&#45;&gt;:modules:navigator&#45;notifications</title>
<path fill="none" stroke="red" stroke-width="2" d="M1077.72,-289.46C1105.03,-279.3 1140.98,-265.91 1170.4,-254.96"/>
<polygon fill="red" stroke="red" stroke-width="2" points="1171.95,-258.11 1180.1,-251.34 1169.51,-251.55 1171.95,-258.11"/>
</g>
<!-- :modules:navigator&#45;quicktile&#45;&gt;:modules:core&#45;android -->
<g id="edge29" class="edge">
<title>:modules:navigator&#45;quicktile&#45;&gt;:modules:core&#45;android</title>
<path fill="none" stroke="black" d="M988.78,-361.56C967.04,-353.4 943.68,-341.36 927,-324 890.81,-286.34 874.71,-225.5 868.11,-190.38"/>
<polygon fill="black" stroke="black" points="871.53,-189.61 866.36,-180.36 864.64,-190.82 871.53,-189.61"/>
</g>
<!-- :modules:navigator&#45;quicktile&#45;&gt;:modules:navigator -->
<g id="edge30" class="edge">
<title>:modules:navigator&#45;quicktile&#45;&gt;:modules:navigator</title>
<path fill="none" stroke="red" stroke-width="2" d="M1045.03,-359.7C1043.71,-351.98 1042.12,-342.71 1040.65,-334.11"/>
<polygon fill="red" stroke="red" stroke-width="2" points="1044.07,-333.37 1038.93,-324.1 1037.17,-334.55 1044.07,-333.37"/>
</g>
<!-- :modules:navigator&#45;quicktile&#45;&gt;:modules:navigator&#45;domain -->
<g id="edge31" class="edge">
<title>:modules:navigator&#45;quicktile&#45;&gt;:modules:navigator&#45;domain</title>
<path fill="none" stroke="black" d="M1173.89,-369.44C1255.72,-357.21 1356.75,-326.72 1410,-252 1419.29,-238.97 1417.84,-229.95 1410,-216 1402.4,-202.47 1389.78,-191.98 1376.48,-184.05"/>
<polygon fill="black" stroke="black" points="1378.14,-180.96 1367.69,-179.2 1374.75,-187.09 1378.14,-180.96"/>
</g>
<!-- :modules:navigator&#45;domain&#45;&gt;:modules:domain -->
<g id="edge33" class="edge">
<title>:modules:navigator&#45;domain&#45;&gt;:modules:domain</title>
<path fill="none" stroke="red" stroke-width="2" d="M1219.07,-150.25C1086.22,-136.52 858.53,-112.98 733.89,-100.09"/>
<polygon fill="red" stroke="red" stroke-width="2" points="733.93,-96.57 723.63,-99.03 733.21,-103.54 733.93,-96.57"/>
</g>
<!-- :modules:navigator&#45;domain&#45;&gt;:modules:resources -->
<g id="edge34" class="edge">
<title>:modules:navigator&#45;domain&#45;&gt;:modules:resources</title>
<path fill="none" stroke="black" d="M1294.25,-144.28C1258.07,-124 1193.46,-90.27 1134,-72 1056.32,-48.14 965.1,-34.63 897.17,-27.23"/>
<polygon fill="black" stroke="black" points="897.21,-23.72 886.9,-26.14 896.47,-30.68 897.21,-23.72"/>
</g>
<!-- :modules:navigator&#45;domain&#45;&gt;:modules:storage -->
<g id="edge32" class="edge">
<title>:modules:navigator&#45;domain&#45;&gt;:modules:storage</title>
<path fill="none" stroke="black" d="M1310.33,-143.87C1292.05,-119.14 1258.11,-73.24 1236.86,-44.51"/>
<polygon fill="black" stroke="black" points="1239.47,-42.15 1230.71,-36.19 1233.84,-46.31 1239.47,-42.15"/>
</g>
<!-- :modules:navigator&#45;notifications&#45;&gt;:modules:core&#45;android -->
<g id="edge37" class="edge">
<title>:modules:navigator&#45;notifications&#45;&gt;:modules:core&#45;android</title>
<path fill="none" stroke="black" d="M1147.65,-218.15C1087.44,-206.45 1003.74,-190.17 942.88,-178.34"/>
<polygon fill="black" stroke="black" points="943.42,-174.88 932.93,-176.4 942.08,-181.75 943.42,-174.88"/>
</g>
<!-- :modules:navigator&#45;notifications&#45;&gt;:modules:domain -->
<g id="edge36" class="edge">
<title>:modules:navigator&#45;notifications&#45;&gt;:modules:domain</title>
<path fill="none" stroke="black" d="M1186.7,-216.41C1130.2,-191.34 1028.55,-146.42 1020,-144 926.86,-117.61 816.77,-104.03 740.26,-97.27"/>
<polygon fill="black" stroke="black" points="740.42,-93.77 730.16,-96.39 739.82,-100.74 740.42,-93.77"/>
</g>
<!-- :modules:navigator&#45;notifications&#45;&gt;:modules:resources -->
<g id="edge38" class="edge">
<title>:modules:navigator&#45;notifications&#45;&gt;:modules:resources</title>
<path fill="none" stroke="black" d="M1204.99,-216.03C1193.57,-205.73 1178.82,-192.25 1166,-180 1116.93,-133.09 1117.8,-104.12 1058,-72 1009.89,-46.16 950.61,-32.88 900.72,-26.07"/>
<polygon fill="black" stroke="black" points="900.91,-22.57 890.54,-24.76 900.01,-29.51 900.91,-22.57"/>
</g>
<!-- :modules:navigator&#45;notifications&#45;&gt;:modules:storage -->
<g id="edge39" class="edge">
<title>:modules:navigator&#45;notifications&#45;&gt;:modules:storage</title>
<path fill="none" stroke="black" d="M1202.73,-215.7C1192.89,-206.31 1182.24,-193.8 1177,-180 1159.49,-133.86 1183.7,-77.47 1201.69,-45.15"/>
<polygon fill="black" stroke="black" points="1204.82,-46.72 1206.79,-36.31 1198.76,-43.23 1204.82,-46.72"/>
</g>
<!-- :modules:navigator&#45;notifications&#45;&gt;:modules:navigator&#45;domain -->
<g id="edge35" class="edge">
<title>:modules:navigator&#45;notifications&#45;&gt;:modules:navigator&#45;domain</title>
<path fill="none" stroke="red" stroke-width="2" d="M1247.97,-216.05C1260.86,-206.94 1276.93,-195.58 1290.88,-185.71"/>
<polygon fill="red" stroke="red" stroke-width="2" points="1293.11,-188.42 1299.26,-179.79 1289.07,-182.7 1293.11,-188.42"/>
</g>
</g>
</svg>
