<?xml version="1.0" encoding="UTF-8" standalone="no"?>
<!DOCTYPE svg PUBLIC "-//W3C//DTD SVG 1.1//EN"
 "http://www.w3.org/Graphics/SVG/1.1/DTD/svg11.dtd">
<!-- Generated by graphviz version 2.43.0 (0)
 -->
<!-- Title: G Pages: 1 -->
<svg width="1480pt" height="476pt"
 viewBox="0.00 0.00 1480.00 476.00" xmlns="http://www.w3.org/2000/svg" xmlns:xlink="http://www.w3.org/1999/xlink">
<g id="graph0" class="graph" transform="scale(1 1) rotate(0) translate(4 472)">
<title>G</title>
<polygon fill="white" stroke="transparent" points="-4,4 -4,-472 1476,-472 1476,4 -4,4"/>
<!-- :app -->
<g id="node1" class="node">
<title>:app</title>
<ellipse fill="none" stroke="black" cx="552" cy="-450" rx="30.59" ry="18"/>
<text text-anchor="middle" x="552" y="-446.3" font-family="Times,serif" font-size="14.00">:app</text>
</g>
<!-- :modules:shared -->
<g id="node2" class="node">
<title>:modules:shared</title>
<ellipse fill="none" stroke="black" cx="837" cy="-162" rx="87.18" ry="18"/>
<text text-anchor="middle" x="837" y="-158.3" font-family="Times,serif" font-size="14.00">:modules:shared</text>
</g>
<!-- :app&#45;&gt;:modules:shared -->
<g id="edge1" class="edge">
<title>:app&#45;&gt;:modules:shared</title>
<path fill="none" stroke="black" d="M574.95,-438.02C625.52,-412.63 747.14,-344.87 811,-252 823.72,-233.51 830.29,-208.76 833.65,-190.06"/>
<polygon fill="black" stroke="black" points="837.12,-190.53 835.23,-180.1 830.2,-189.43 837.12,-190.53"/>
</g>
<!-- :modules:designsystem -->
<g id="node3" class="node">
<title>:modules:designsystem</title>
<ellipse fill="none" stroke="black" cx="224" cy="-162" rx="119.68" ry="18"/>
<text text-anchor="middle" x="224" y="-158.3" font-family="Times,serif" font-size="14.00">:modules:designsystem</text>
</g>
<!-- :app&#45;&gt;:modules:designsystem -->
<g id="edge2" class="edge">
<title>:app&#45;&gt;:modules:designsystem</title>
<path fill="none" stroke="black" d="M533.67,-435.41C492.25,-404.45 388.86,-325.63 309,-252 286.66,-231.4 262.91,-206.22 246.21,-187.91"/>
<polygon fill="black" stroke="black" points="248.37,-185.08 239.06,-180.02 243.18,-189.78 248.37,-185.08"/>
</g>
<!-- :modules:database -->
<g id="node4" class="node">
<title>:modules:database</title>
<ellipse fill="none" stroke="black" cx="705" cy="-234" rx="97.48" ry="18"/>
<text text-anchor="middle" x="705" y="-230.3" font-family="Times,serif" font-size="14.00">:modules:database</text>
</g>
<!-- :app&#45;&gt;:modules:database -->
<g id="edge3" class="edge">
<title>:app&#45;&gt;:modules:database</title>
<path fill="none" stroke="black" d="M563.25,-433.26C589.52,-396.52 655.07,-304.84 686.98,-260.21"/>
<polygon fill="black" stroke="black" points="689.92,-262.11 692.89,-251.94 684.23,-258.04 689.92,-262.11"/>
</g>
<!-- :modules:datastore -->
<g id="node5" class="node">
<title>:modules:datastore</title>
<ellipse fill="none" stroke="black" cx="489" cy="-234" rx="100.18" ry="18"/>
<text text-anchor="middle" x="489" y="-230.3" font-family="Times,serif" font-size="14.00">:modules:datastore</text>
</g>
<!-- :app&#45;&gt;:modules:datastore -->
<g id="edge4" class="edge">
<title>:app&#45;&gt;:modules:datastore</title>
<path fill="none" stroke="black" d="M547.06,-432.21C536.16,-395.19 509.99,-306.3 496.83,-261.6"/>
<polygon fill="black" stroke="black" points="500.19,-260.61 494.01,-252.01 493.47,-262.59 500.19,-260.61"/>
</g>
<!-- :modules:domain -->
<g id="node6" class="node">
<title>:modules:domain</title>
<ellipse fill="none" stroke="black" cx="646" cy="-90" rx="89.88" ry="18"/>
<text text-anchor="middle" x="646" y="-86.3" font-family="Times,serif" font-size="14.00">:modules:domain</text>
</g>
<!-- :app&#45;&gt;:modules:domain -->
<g id="edge5" class="edge">
<title>:app&#45;&gt;:modules:domain</title>
<path fill="none" stroke="black" d="M521.77,-447.24C411.59,-440 38,-408.03 38,-307 38,-307 38,-307 38,-233 38,-189.63 42.72,-169.22 78,-144 115.31,-117.32 396.03,-101.5 548.36,-94.79"/>
<polygon fill="black" stroke="black" points="548.82,-98.28 558.66,-94.35 548.51,-91.28 548.82,-98.28"/>
</g>
<!-- :modules:usecase -->
<g id="node7" class="node">
<title>:modules:usecase</title>
<ellipse fill="none" stroke="black" cx="164" cy="-306" rx="92.08" ry="18"/>
<text text-anchor="middle" x="164" y="-302.3" font-family="Times,serif" font-size="14.00">:modules:usecase</text>
</g>
<!-- :app&#45;&gt;:modules:usecase -->
<g id="edge6" class="edge">
<title>:app&#45;&gt;:modules:usecase</title>
<path fill="none" stroke="black" d="M521.38,-447.52C469.69,-444.06 362.79,-432.7 281,-396 245.38,-380.02 210.56,-351.36 188.29,-330.88"/>
<polygon fill="black" stroke="black" points="190.65,-328.29 180.96,-324.01 185.87,-333.4 190.65,-328.29"/>
</g>
<!-- :modules:navigator -->
<g id="node8" class="node">
<title>:modules:navigator</title>
<ellipse fill="none" stroke="black" cx="996" cy="-306" rx="100.18" ry="18"/>
<text text-anchor="middle" x="996" y="-302.3" font-family="Times,serif" font-size="14.00">:modules:navigator</text>
</g>
<!-- :app&#45;&gt;:modules:navigator -->
<g id="edge7" class="edge">
<title>:app&#45;&gt;:modules:navigator</title>
<path fill="none" stroke="black" d="M582.54,-448.53C637.45,-446.62 755.36,-437.54 844,-396 866.57,-385.42 866.08,-373.55 887,-360 906.27,-347.51 928.93,-336.04 948.57,-326.99"/>
<polygon fill="black" stroke="black" points="950.28,-330.06 957.95,-322.74 947.39,-323.68 950.28,-330.06"/>
</g>
<!-- :modules:navigator&#45;quicktile -->
<g id="node9" class="node">
<title>:modules:navigator&#45;quicktile</title>
<ellipse fill="none" stroke="black" cx="1039" cy="-378" rx="142.97" ry="18"/>
<text text-anchor="middle" x="1039" y="-374.3" font-family="Times,serif" font-size="14.00">:modules:navigator&#45;quicktile</text>
</g>
<!-- :app&#45;&gt;:modules:navigator&#45;quicktile -->
<g id="edge8" class="edge">
<title>:app&#45;&gt;:modules:navigator&#45;quicktile</title>
<path fill="none" stroke="red" stroke-width="2" d="M581.37,-444.78C650.44,-434.85 825.81,-409.64 938.31,-393.47"/>
<polygon fill="red" stroke="red" stroke-width="2" points="938.92,-396.92 948.32,-392.03 937.92,-389.99 938.92,-396.92"/>
</g>
<!-- :modules:resources -->
<g id="node10" class="node">
<title>:modules:resources</title>
<ellipse fill="none" stroke="black" cx="770" cy="-18" rx="100.98" ry="18"/>
<text text-anchor="middle" x="770" y="-14.3" font-family="Times,serif" font-size="14.00">:modules:resources</text>
</g>
<!-- :app&#45;&gt;:modules:resources -->
<g id="edge9" class="edge">
<title>:app&#45;&gt;:modules:resources</title>
<path fill="none" stroke="black" d="M521.38,-448.43C429.16,-446.29 155.71,-436.58 78,-396 31.38,-371.65 0,-359.6 0,-307 0,-307 0,-307 0,-161 0,-93.63 461.8,-45.44 670.14,-27.13"/>
<polygon fill="black" stroke="black" points="670.51,-30.61 680.16,-26.26 669.9,-23.64 670.51,-30.61"/>
</g>
<!-- :modules:storage -->
<g id="node11" class="node">
<title>:modules:storage</title>
<ellipse fill="none" stroke="black" cx="1164" cy="-18" rx="90.98" ry="18"/>
<text text-anchor="middle" x="1164" y="-14.3" font-family="Times,serif" font-size="14.00">:modules:storage</text>
</g>
<!-- :app&#45;&gt;:modules:storage -->
<g id="edge10" class="edge">
<title>:app&#45;&gt;:modules:storage</title>
<path fill="none" stroke="black" d="M582.35,-447.59C741.44,-439.83 1472,-399.17 1472,-307 1472,-307 1472,-307 1472,-161 1472,-66.79 1351.68,-34.87 1261.45,-24.18"/>
<polygon fill="black" stroke="black" points="1261.76,-20.7 1251.44,-23.07 1260.99,-27.65 1261.76,-20.7"/>
</g>
<!-- :modules:designsystem&#45;&gt;:modules:domain -->
<g id="edge11" class="edge">
<title>:modules:designsystem&#45;&gt;:modules:domain</title>
<path fill="none" stroke="black" d="M301.4,-148.16C377.57,-135.53 493.21,-116.34 569.18,-103.74"/>
<polygon fill="black" stroke="black" points="569.87,-107.18 579.17,-102.09 568.73,-100.27 569.87,-107.18"/>
</g>
<!-- :modules:designsystem&#45;&gt;:modules:resources -->
<g id="edge12" class="edge">
<title>:modules:designsystem&#45;&gt;:modules:resources</title>
<path fill="none" stroke="black" d="M277,-145.77C340.86,-127.57 451.5,-96.5 547,-72 598.24,-58.85 656.41,-45.07 700.48,-34.85"/>
<polygon fill="black" stroke="black" points="701.27,-38.26 710.23,-32.6 699.7,-31.44 701.27,-38.26"/>
</g>
<!-- :modules:database&#45;&gt;:modules:shared -->
<g id="edge13" class="edge">
<title>:modules:database&#45;&gt;:modules:shared</title>
<path fill="none" stroke="black" d="M735.62,-216.76C754.24,-206.89 778.2,-194.18 798.15,-183.6"/>
<polygon fill="black" stroke="black" points="799.81,-186.68 807.01,-178.91 796.53,-180.5 799.81,-186.68"/>
</g>
<!-- :modules:database&#45;&gt;:modules:domain -->
<g id="edge14" class="edge">
<title>:modules:database&#45;&gt;:modules:domain</title>
<path fill="none" stroke="black" d="M697.88,-215.87C687.74,-191.46 669.03,-146.43 657.07,-117.64"/>
<polygon fill="black" stroke="black" points="660.21,-116.08 653.14,-108.19 653.75,-118.77 660.21,-116.08"/>
</g>
<!-- :modules:database&#45;&gt;:modules:storage -->
<g id="edge15" class="edge">
<title>:modules:database&#45;&gt;:modules:storage</title>
<path fill="none" stroke="black" d="M707.42,-215.71C711.13,-195.65 720.14,-162.93 741,-144 831.01,-62.33 972,-33.88 1066.17,-24.05"/>
<polygon fill="black" stroke="black" points="1066.66,-27.52 1076.27,-23.05 1065.97,-20.55 1066.66,-27.52"/>
</g>
<!-- :modules:datastore&#45;&gt;:modules:shared -->
<g id="edge16" class="edge">
<title>:modules:datastore&#45;&gt;:modules:shared</title>
<path fill="none" stroke="black" d="M553.23,-220.08C613.79,-207.9 704.32,-189.69 766.76,-177.13"/>
<polygon fill="black" stroke="black" points="767.81,-180.49 776.92,-175.08 766.43,-173.63 767.81,-180.49"/>
</g>
<!-- :modules:datastore&#45;&gt;:modules:domain -->
<g id="edge17" class="edge">
<title>:modules:datastore&#45;&gt;:modules:domain</title>
<path fill="none" stroke="black" d="M558.12,-220.82C583.13,-213.08 609.49,-200.48 627,-180 641.55,-162.98 645.81,-137.52 646.72,-118.18"/>
<polygon fill="black" stroke="black" points="650.22,-118.24 646.92,-108.17 643.22,-118.09 650.22,-118.24"/>
</g>
<!-- :modules:datastore&#45;proto -->
<g id="node12" class="node">
<title>:modules:datastore&#45;proto</title>
<ellipse fill="none" stroke="black" cx="490" cy="-162" rx="128.08" ry="18"/>
<text text-anchor="middle" x="490" y="-158.3" font-family="Times,serif" font-size="14.00">:modules:datastore&#45;proto</text>
</g>
<!-- :modules:datastore&#45;&gt;:modules:datastore&#45;proto -->
<g id="edge18" class="edge">
<title>:modules:datastore&#45;&gt;:modules:datastore&#45;proto</title>
<path fill="none" stroke="black" d="M489.25,-215.7C489.36,-207.98 489.49,-198.71 489.61,-190.11"/>
<polygon fill="black" stroke="black" points="493.11,-190.15 489.76,-180.1 486.11,-190.05 493.11,-190.15"/>
</g>
<!-- :modules:domain&#45;&gt;:modules:resources -->
<g id="edge20" class="edge">
<title>:modules:domain&#45;&gt;:modules:resources</title>
<path fill="none" stroke="black" d="M674.76,-72.76C691.85,-63.12 713.73,-50.77 732.21,-40.34"/>
<polygon fill="black" stroke="black" points="733.98,-43.35 740.97,-35.39 730.54,-37.26 733.98,-43.35"/>
</g>
<!-- :modules:domain&#45;&gt;:modules:storage -->
<g id="edge19" class="edge">
<title>:modules:domain&#45;&gt;:modules:storage</title>
<path fill="none" stroke="red" stroke-width="2" d="M712.25,-77.82C724.77,-75.8 737.78,-73.78 750,-72 863.17,-55.51 994.17,-39.21 1077.98,-29.13"/>
<polygon fill="red" stroke="red" stroke-width="2" points="1078.46,-32.6 1087.97,-27.93 1077.62,-25.65 1078.46,-32.6"/>
</g>
<!-- :modules:usecase&#45;&gt;:modules:domain -->
<g id="edge21" class="edge">
<title>:modules:usecase&#45;&gt;:modules:domain</title>
<path fill="none" stroke="black" d="M145.86,-287.95C114.18,-256.17 55.74,-187.22 95,-144 124.77,-111.23 397.15,-98.18 547.47,-93.43"/>
<polygon fill="black" stroke="black" points="547.74,-96.93 557.63,-93.12 547.53,-89.93 547.74,-96.93"/>
</g>
<!-- :modules:navigator&#45;&gt;:modules:shared -->
<g id="edge22" class="edge">
<title>:modules:navigator&#45;&gt;:modules:shared</title>
<path fill="none" stroke="black" d="M974.21,-288.28C961.16,-278.07 944.36,-264.6 930,-252 905.89,-230.85 879.59,-205.45 861.13,-187.21"/>
<polygon fill="black" stroke="black" points="863.29,-184.42 853.72,-179.86 858.36,-189.39 863.29,-184.42"/>
</g>
<!-- :modules:navigator&#45;&gt;:modules:designsystem -->
<g id="edge23" class="edge">
<title>:modules:navigator&#45;&gt;:modules:designsystem</title>
<path fill="none" stroke="black" d="M898.69,-301.72C750.13,-295.85 474.09,-281.33 380,-252 355.2,-244.27 296.58,-208.89 258.69,-185.14"/>
<polygon fill="black" stroke="black" points="260.33,-182.03 250,-179.67 256.6,-187.96 260.33,-182.03"/>
</g>
<!-- :modules:navigator&#45;&gt;:modules:domain -->
<g id="edge24" class="edge">
<title>:modules:navigator&#45;&gt;:modules:domain</title>
<path fill="none" stroke="black" d="M985.89,-287.7C980.18,-277.52 973.18,-264.27 968,-252 948.36,-205.52 970.93,-177.27 933,-144 904.53,-119.03 811.47,-105.15 738.94,-97.92"/>
<polygon fill="black" stroke="black" points="739.15,-94.43 728.86,-96.95 738.47,-101.39 739.15,-94.43"/>
</g>
<!-- :modules:navigator&#45;&gt;:modules:resources -->
<g id="edge27" class="edge">
<title>:modules:navigator&#45;&gt;:modules:resources</title>
<path fill="none" stroke="black" d="M995.95,-287.84C995.06,-256.49 989.33,-189.03 958,-144 923.38,-94.24 861.98,-58.99 818.79,-38.87"/>
<polygon fill="black" stroke="black" points="820.14,-35.64 809.59,-34.68 817.24,-42.01 820.14,-35.64"/>
</g>
<!-- :modules:navigator&#45;&gt;:modules:storage -->
<g id="edge28" class="edge">
<title>:modules:navigator&#45;&gt;:modules:storage</title>
<path fill="none" stroke="black" d="M1088.38,-298.98C1179.55,-291.7 1311.54,-277.18 1356,-252 1392,-231.61 1401.08,-218.96 1415,-180 1444.75,-96.76 1323.16,-52.94 1238.88,-32.98"/>
<polygon fill="black" stroke="black" points="1239.58,-29.55 1229.05,-30.72 1238.01,-36.37 1239.58,-29.55"/>
</g>
<!-- :modules:navigator&#45;domain -->
<g id="node13" class="node">
<title>:modules:navigator&#45;domain</title>
<ellipse fill="none" stroke="black" cx="1269" cy="-162" rx="137.28" ry="18"/>
<text text-anchor="middle" x="1269" y="-158.3" font-family="Times,serif" font-size="14.00">:modules:navigator&#45;domain</text>
</g>
<!-- :modules:navigator&#45;&gt;:modules:navigator&#45;domain -->
<g id="edge25" class="edge">
<title>:modules:navigator&#45;&gt;:modules:navigator&#45;domain</title>
<path fill="none" stroke="black" d="M1095.54,-303.5C1185.4,-299.78 1308.11,-288.02 1339,-252 1349.41,-239.85 1346.12,-230.33 1339,-216 1332.84,-203.6 1322.23,-193.33 1311.11,-185.23"/>
<polygon fill="black" stroke="black" points="1312.82,-182.16 1302.58,-179.47 1308.91,-187.96 1312.82,-182.16"/>
</g>
<!-- :modules:navigator&#45;notifications -->
<g id="node14" class="node">
<title>:modules:navigator&#45;notifications</title>
<ellipse fill="none" stroke="black" cx="1170" cy="-234" rx="159.77" ry="18"/>
<text text-anchor="middle" x="1170" y="-230.3" font-family="Times,serif" font-size="14.00">:modules:navigator&#45;notifications</text>
</g>
<!-- :modules:navigator&#45;&gt;:modules:navigator&#45;notifications -->
<g id="edge26" class="edge">
<title>:modules:navigator&#45;&gt;:modules:navigator&#45;notifications</title>
<path fill="none" stroke="red" stroke-width="2" d="M1035.05,-289.29C1059.95,-279.27 1092.46,-266.19 1119.34,-255.38"/>
<polygon fill="red" stroke="red" stroke-width="2" points="1120.99,-258.49 1128.96,-251.51 1118.38,-251.99 1120.99,-258.49"/>
</g>
<!-- :modules:navigator&#45;quicktile&#45;&gt;:modules:shared -->
<g id="edge29" class="edge">
<title>:modules:navigator&#45;quicktile&#45;&gt;:modules:shared</title>
<path fill="none" stroke="black" d="M956.55,-363.26C931.41,-355.44 905.55,-343.19 887,-324 868.38,-304.73 850.81,-230.64 842.32,-190.02"/>
<polygon fill="black" stroke="black" points="845.7,-189.09 840.27,-180 838.85,-190.5 845.7,-189.09"/>
</g>
<!-- :modules:navigator&#45;quicktile&#45;&gt;:modules:navigator -->
<g id="edge30" class="edge">
<title>:modules:navigator&#45;quicktile&#45;&gt;:modules:navigator</title>
<path fill="none" stroke="red" stroke-width="2" d="M1028.37,-359.7C1023.37,-351.56 1017.31,-341.69 1011.79,-332.7"/>
<polygon fill="red" stroke="red" stroke-width="2" points="1014.72,-330.79 1006.51,-324.1 1008.76,-334.46 1014.72,-330.79"/>
</g>
<!-- :modules:navigator&#45;quicktile&#45;&gt;:modules:navigator&#45;domain -->
<g id="edge31" class="edge">
<title>:modules:navigator&#45;quicktile&#45;&gt;:modules:navigator&#45;domain</title>
<path fill="none" stroke="black" d="M1144.64,-365.81C1217.34,-351.98 1308.98,-321.08 1356,-252 1365,-238.77 1363.84,-229.95 1356,-216 1348.4,-202.47 1335.78,-191.98 1322.48,-184.05"/>
<polygon fill="black" stroke="black" points="1324.14,-180.96 1313.69,-179.2 1320.75,-187.09 1324.14,-180.96"/>
</g>
<!-- :modules:navigator&#45;domain&#45;&gt;:modules:domain -->
<g id="edge33" class="edge">
<title>:modules:navigator&#45;domain&#45;&gt;:modules:domain</title>
<path fill="none" stroke="red" stroke-width="2" d="M1168.56,-149.71C1047.62,-136.13 846.54,-113.53 732.3,-100.7"/>
<polygon fill="red" stroke="red" stroke-width="2" points="732.52,-97.2 722.19,-99.56 731.74,-104.16 732.52,-97.2"/>
</g>
<!-- :modules:navigator&#45;domain&#45;&gt;:modules:resources -->
<g id="edge34" class="edge">
<title>:modules:navigator&#45;domain&#45;&gt;:modules:resources</title>
<path fill="none" stroke="black" d="M1239.89,-144.23C1203.62,-124.07 1139.16,-90.61 1080,-72 1010.19,-50.04 928.5,-36.55 866.5,-28.68"/>
<polygon fill="black" stroke="black" points="866.69,-25.17 856.34,-27.41 865.83,-32.12 866.69,-25.17"/>
</g>
<!-- :modules:navigator&#45;domain&#45;&gt;:modules:storage -->
<g id="edge32" class="edge">
<title>:modules:navigator&#45;domain&#45;&gt;:modules:storage</title>
<path fill="none" stroke="black" d="M1256.33,-143.87C1238.05,-119.14 1204.11,-73.24 1182.86,-44.51"/>
<polygon fill="black" stroke="black" points="1185.47,-42.15 1176.71,-36.19 1179.84,-46.31 1185.47,-42.15"/>
</g>
<!-- :modules:navigator&#45;notifications&#45;&gt;:modules:shared -->
<g id="edge37" class="edge">
<title>:modules:navigator&#45;notifications&#45;&gt;:modules:shared</title>
<path fill="none" stroke="black" d="M1098.15,-217.9C1041.07,-205.9 961.75,-189.22 905.55,-177.41"/>
<polygon fill="black" stroke="black" points="906.19,-173.97 895.68,-175.34 904.75,-180.82 906.19,-173.97"/>
</g>
<!-- :modules:navigator&#45;notifications&#45;&gt;:modules:domain -->
<g id="edge36" class="edge">
<title>:modules:navigator&#45;notifications&#45;&gt;:modules:domain</title>
<path fill="none" stroke="black" d="M1133.39,-216.44C1079.38,-192.1 982.9,-149 966,-144 889.76,-121.43 800.27,-107.64 735.35,-99.8"/>
<polygon fill="black" stroke="black" points="735.48,-96.29 725.14,-98.6 734.66,-103.25 735.48,-96.29"/>
</g>
<!-- :modules:navigator&#45;notifications&#45;&gt;:modules:resources -->
<g id="edge38" class="edge">
<title>:modules:navigator&#45;notifications&#45;&gt;:modules:resources</title>
<path fill="none" stroke="black" d="M1150.99,-216.03C1139.57,-205.73 1124.82,-192.25 1112,-180 1062.93,-133.09 1063.44,-104.79 1004,-72 962.38,-49.04 911.37,-36.02 867.61,-28.64"/>
<polygon fill="black" stroke="black" points="867.95,-25.15 857.53,-27.01 866.84,-32.06 867.95,-25.15"/>
</g>
<!-- :modules:navigator&#45;notifications&#45;&gt;:modules:storage -->
<g id="edge39" class="edge">
<title>:modules:navigator&#45;notifications&#45;&gt;:modules:storage</title>
<path fill="none" stroke="black" d="M1148.73,-215.7C1138.89,-206.31 1128.24,-193.8 1123,-180 1105.49,-133.86 1129.7,-77.47 1147.69,-45.15"/>
<polygon fill="black" stroke="black" points="1150.82,-46.72 1152.79,-36.31 1144.76,-43.23 1150.82,-46.72"/>
</g>
<!-- :modules:navigator&#45;notifications&#45;&gt;:modules:navigator&#45;domain -->
<g id="edge35" class="edge">
<title>:modules:navigator&#45;notifications&#45;&gt;:modules:navigator&#45;domain</title>
<path fill="none" stroke="red" stroke-width="2" d="M1193.97,-216.05C1206.86,-206.94 1222.93,-195.58 1236.88,-185.71"/>
<polygon fill="red" stroke="red" stroke-width="2" points="1239.11,-188.42 1245.26,-179.79 1235.07,-182.7 1239.11,-188.42"/>
</g>
</g>
</svg>
